<svg xmlns:xlink="http://www.w3.org/1999/xlink" xmlns="http://www.w3.org/2000/svg" width="14" height="16" viewBox="0 0 14 16" fill="none"><path d="M0.0714264 4.06729L7.04061 0L14 4.06729V11.9614L7.04061 16L0.0714264 11.9614V4.06729Z" fill="#C7822A"></path><path d="M2.25534 5.26569L7.03571 2.44145L11.8161 5.26569V10.7437L10.5055 11.5115V6.95271C10.5055 6.88644 10.4676 6.82956 10.4205 6.8012L9.25147 6.11853C9.12895 6.0521 8.98742 6.13764 8.98742 6.27035V12.4118L8.71386 12.573V5.91029C8.71386 5.84386 8.67629 5.78713 8.62922 5.75847L7.45985 5.0761C7.33733 5.00983 7.1958 5.09522 7.1958 5.22793V13.4735L7.05457 13.5585L6.91304 13.4735V7.15171C6.91304 7.00944 6.762 6.92435 6.64899 6.99988L5.47992 7.68255C5.42334 7.71076 5.39497 7.77719 5.39497 7.83407V12.573L5.12172 12.4118V9.16103C5.12172 9.01876 4.97068 8.93367 4.85767 9.00921L3.6883 9.69187C3.63172 9.72008 3.60365 9.78651 3.60365 9.84339V11.5212L2.29306 10.7534V5.26569H2.25534ZM1.14285 4.63065V11.3979L7.03571 14.8571L12.9286 11.3979V4.63065L7.03571 1.14285L1.14285 4.63065Z" fill="#FFFFFF"></path></svg>