<svg xmlns:xlink="http://www.w3.org/1999/xlink" xmlns="http://www.w3.org/2000/svg" width="16" height="16" viewBox="0 0 16 16" fill="none"><path d="M0 4.0678L7.00424 0L14 4.0678V11.9602L7.00424 16L0 11.9602V4.0678Z" fill="#F67A06"></path><path d="M0.772583 4.50114L7.00425 0.883453L13.2246 4.50114V11.5212L7.00425 15.1137L0.772583 11.5212V4.50114Z" fill="#FFFFFF"></path><path d="M1.53386 4.92888L7.00425 1.75292L12.4633 4.92888V11.0907L7.00425 14.2443L1.53386 11.0907V4.92888Z" fill="#F67A06"></path><path d="M1.53386 4.92888L7.00425 1.75292L12.4633 4.92888V11.0907L7.00425 14.2443L1.53386 11.0907V4.92888Z" fill="#F67A06"></path><path d="M9.90217 8.76461C9.74935 8.46547 9.49465 8.22783 9.1409 8.0489C9.42956 7.97901 9.67577 7.83922 9.8767 7.62954C10.0776 7.41986 10.205 7.17104 10.2588 6.88588C10.3097 6.62308 10.2927 6.37147 10.205 6.13662C10.1201 5.90178 9.99273 5.70049 9.82859 5.53834C9.66445 5.37619 9.46352 5.25038 9.23146 5.16651C9.06449 5.105 8.83243 5.04349 8.53528 4.98199L8.70791 4.07897L7.68062 3.88886L7.51082 4.78629L6.93067 4.67725L6.86275 4.66328L7.03255 3.76585L6.00526 3.57574L5.83546 4.47317L5.68547 4.44521L4.74025 4.26908L4.54781 5.28393L5.49303 5.46006L4.71195 9.53343L3.76673 9.3573L3.5743 10.3722L4.51951 10.5483L4.6695 10.5762L4.51102 11.4066L5.53831 11.5967L5.69679 10.7664L5.76471 10.7803L6.34486 10.8894L6.18638 11.7197L7.21367 11.9098L7.37498 11.0683C7.73722 11.127 7.99758 11.1661 8.13059 11.1773C8.46736 11.2025 8.76734 11.1578 9.02204 11.0431C9.27957 10.9285 9.49748 10.7524 9.6786 10.5147C9.85972 10.2771 9.97575 10.0199 10.0295 9.74032C10.0974 9.38806 10.055 9.06096 9.90217 8.76461ZM7.45139 5.8263C8.0372 5.93533 8.39378 6.00802 8.51264 6.04437C8.7164 6.10867 8.8579 6.20931 8.9428 6.3463C9.02487 6.48329 9.04751 6.64545 9.01355 6.83556C8.97676 7.03405 8.88337 7.18223 8.73904 7.27728C8.59471 7.37513 8.41076 7.41707 8.19285 7.40309C8.07116 7.3947 7.76835 7.34717 7.28159 7.25492L6.46372 7.10395L6.73257 5.6921L7.45139 5.8263ZM8.47868 9.92763C8.33718 10.0339 8.17021 10.0898 7.97777 10.087C7.85325 10.0898 7.56459 10.0478 7.11462 9.96677L5.95998 9.7515L6.27128 8.1188L7.27876 8.30611C7.84476 8.41235 8.20983 8.5102 8.36831 8.59966C8.52679 8.68912 8.63999 8.80655 8.70508 8.95192C8.77017 9.0973 8.78715 9.25945 8.75319 9.44397C8.71074 9.65924 8.62018 9.82139 8.47868 9.92763Z" fill="#FFFFFF"></path></svg>