<svg xmlns:xlink="http://www.w3.org/1999/xlink" xmlns="http://www.w3.org/2000/svg" width="16" height="16" viewBox="0 0 16 16" fill="none"><path d="M14.527 3.38206C14.5268 3.3769 14.5262 3.37175 14.5253 3.36662C14.5053 3.33805 14.4807 3.31347 14.4601 3.28547C14.3108 3.08198 14.1526 2.88612 13.9857 2.69786C13.94 2.64642 13.8943 2.59554 13.8474 2.54524C13.6756 2.3612 13.4953 2.1857 13.3067 2.01881C13.2718 1.98794 13.2392 1.95595 13.2044 1.92564C12.7395 1.52739 12.2305 1.1837 11.6874 0.901363C11.6656 0.889942 11.6428 0.88023 11.6205 0.868776C11.3786 0.745861 11.1306 0.635372 10.8774 0.537811C10.8202 0.517247 10.7682 0.497788 10.7139 0.48064C10.4887 0.39949 10.2601 0.32842 10.028 0.267432C9.95942 0.249145 9.89083 0.23029 9.8211 0.214281C9.59245 0.161129 9.36384 0.120537 9.13003 0.0873804C9.05916 0.0770985 8.98943 0.0633669 8.91796 0.054793C8.31581 -0.0183864 7.70704 -0.0183864 7.10485 0.054793C7.03342 0.0633669 6.96369 0.0770985 6.89278 0.0873804C6.65901 0.120537 6.42809 0.161129 6.20172 0.214281C6.13199 0.23029 6.0634 0.249145 5.9948 0.267432C5.7612 0.328387 5.53259 0.399456 5.30889 0.48064C5.25172 0.500065 5.19971 0.519524 5.14542 0.537811C4.89226 0.635372 4.64422 0.745828 4.40234 0.868776C4.38003 0.880196 4.35719 0.889909 4.33546 0.901363C3.79051 1.1834 3.2798 1.52706 2.81329 1.92564C2.77843 1.95592 2.74584 1.98794 2.71097 2.01881C2.52044 2.18647 2.34019 2.36197 2.17025 2.54524C2.1234 2.59554 2.07765 2.64642 2.03193 2.69786C1.86464 2.88571 1.70649 3.08157 1.55752 3.28544C1.53696 3.31344 1.51237 3.33802 1.49234 3.36659C1.48973 3.37158 1.48742 3.37674 1.48548 3.38203C-0.486045 6.14499 -0.486045 9.85487 1.48548 12.6178C1.48742 12.6231 1.4897 12.6283 1.49234 12.6332C1.51234 12.6618 1.53692 12.6864 1.55752 12.7144C1.70652 12.9179 1.86464 13.1138 2.03193 13.302C2.07765 13.3535 2.1234 13.4043 2.17025 13.4546C2.3425 13.6387 2.52272 13.8142 2.71097 13.9811C2.74584 14.0119 2.77843 14.0439 2.81329 14.0742C3.27816 14.4725 3.78716 14.8162 4.3303 15.0985C4.35204 15.1099 4.37488 15.1196 4.39718 15.1311C4.63906 15.254 4.88707 15.3645 5.14026 15.4621C5.19743 15.4826 5.24945 15.5021 5.30374 15.5192C5.52893 15.6004 5.75758 15.6714 5.98965 15.7324C6.05824 15.7507 6.12683 15.7696 6.19656 15.7856C6.42521 15.8387 6.65382 15.8793 6.88763 15.9125C6.9585 15.9228 7.02823 15.9365 7.0997 15.9451C7.70184 16.0183 8.31062 16.0183 8.9128 15.9451C8.98424 15.9365 9.05397 15.9228 9.12487 15.9125C9.35865 15.8793 9.58957 15.8387 9.81594 15.7856C9.88567 15.7696 9.95426 15.7507 10.0229 15.7324C10.2568 15.6715 10.4855 15.6004 10.7088 15.5192C10.7659 15.4998 10.8179 15.4803 10.8722 15.4621C11.1254 15.3645 11.3734 15.254 11.6153 15.1311C11.6376 15.1197 11.6605 15.11 11.6822 15.0985C12.2253 14.8161 12.7343 14.4725 13.1992 14.0742C13.2341 14.0439 13.2667 14.0119 13.3015 13.9811C13.4921 13.8138 13.6723 13.6383 13.8422 13.4546C13.8891 13.4043 13.9349 13.3535 13.9806 13.302C14.1479 13.1138 14.306 12.9179 14.455 12.7144C14.4755 12.6864 14.5001 12.6618 14.5202 12.6332C14.5228 12.6283 14.5251 12.6231 14.527 12.6178C16.4985 9.85491 16.4985 6.14503 14.527 3.38206ZM13.8748 4.46354C14.4215 5.36383 14.7516 6.37877 14.8391 7.4284H11.4153C11.3733 6.74731 11.2662 6.07185 11.0952 5.41126C12.0623 5.23013 12.9985 4.91096 13.8748 4.46354ZM9.46327 1.29861C9.49529 1.30604 9.52614 1.31633 9.55816 1.32376C9.76279 1.37179 9.96572 1.42665 10.1641 1.49524C10.1944 1.50552 10.2241 1.51754 10.2538 1.5284C10.4504 1.59699 10.6442 1.67301 10.834 1.75704C10.8671 1.77248 10.8997 1.78963 10.9329 1.80507C11.1146 1.89158 11.2922 1.98512 11.4656 2.08573L11.5799 2.15489C11.7445 2.2555 11.9046 2.36314 12.0601 2.47785C12.1001 2.50699 12.1401 2.53502 12.1795 2.56701C12.3319 2.68131 12.4779 2.80383 12.6174 2.93455C12.6539 2.9677 12.6917 3.00029 12.7277 3.03458C12.874 3.17347 13.0135 3.32037 13.1484 3.47242C13.1655 3.49242 13.1838 3.5107 13.2009 3.52959C12.427 3.89844 11.6071 4.16182 10.7631 4.31266C10.3721 3.23785 9.85566 2.21293 9.22441 1.25922C9.30379 1.27349 9.38497 1.28149 9.46327 1.29861ZM5.74335 7.42836C5.78843 6.80991 5.89373 6.19731 6.05774 5.59928C6.70536 5.67621 7.35698 5.71436 8.00916 5.71359C8.66195 5.71339 9.31417 5.67427 9.9623 5.5964C10.126 6.1954 10.2307 6.80897 10.2749 7.42836H5.74335ZM10.2749 8.57157C10.2299 9.19003 10.1246 9.80262 9.96056 10.4007C9.31293 10.3237 8.66131 10.2856 8.00913 10.2863C7.35638 10.2856 6.70419 10.3238 6.05599 10.4007C5.89245 9.80259 5.78776 9.18999 5.74332 8.57157H10.2749ZM8.00913 1.51356C8.65961 2.43548 9.1946 3.43371 9.60216 4.48585C9.07303 4.54205 8.54128 4.57028 8.00913 4.57045C7.47758 4.56981 6.9464 4.54141 6.41781 4.48528C6.82587 3.43384 7.36023 2.43595 8.00913 1.51356ZM2.87053 3.47182C3.00486 3.31977 3.14489 3.17287 3.29122 3.03398C3.32722 2.99969 3.36497 2.9671 3.40154 2.93394C3.54254 2.80553 3.6885 2.68302 3.83938 2.5664C3.87883 2.53609 3.91882 2.50923 3.95884 2.47725C4.11431 2.36294 4.27437 2.25527 4.43898 2.15429L4.55329 2.08513C4.72667 1.98378 4.90425 1.89021 5.08601 1.80447C5.11916 1.78903 5.15175 1.77188 5.18491 1.75644C5.37467 1.6707 5.56846 1.59468 5.76509 1.52779C5.79479 1.51694 5.82226 1.50492 5.85481 1.49464C6.05315 1.42832 6.25493 1.37346 6.46071 1.32316C6.49273 1.31572 6.52357 1.30544 6.55616 1.29857C6.63446 1.28143 6.71565 1.27342 6.79509 1.25912C6.16357 2.213 5.64693 3.23811 5.25578 4.31313C4.41182 4.16228 3.59187 3.89891 2.81795 3.53006C2.83509 3.5101 2.85338 3.49181 2.87053 3.47182ZM2.14346 4.46354C3.01963 4.91092 3.95556 5.2301 4.92253 5.41126C4.75176 6.07188 4.64475 6.74734 4.60302 7.4284H1.1792C1.26674 6.37877 1.59684 5.36383 2.14346 4.46354ZM2.14346 11.5364C1.59681 10.6361 1.26671 9.6212 1.1792 8.57157H4.60302C4.64495 9.25266 4.75213 9.92812 4.9231 10.5887C3.95596 10.7698 3.01984 11.089 2.14346 11.5364ZM6.55502 14.7013C6.523 14.6939 6.49216 14.6836 6.46014 14.6762C6.2555 14.6281 6.05258 14.5733 5.85424 14.5047C5.82393 14.4944 5.79422 14.4824 5.76448 14.4715C5.56785 14.4029 5.3741 14.3269 5.18431 14.2429C5.15115 14.2275 5.11856 14.2103 5.0854 14.1949C4.90364 14.1084 4.72607 14.0148 4.55268 13.9142L4.43838 13.845C4.27377 13.7444 4.11371 13.6368 3.95824 13.5221C3.91822 13.4929 3.87823 13.4649 3.83877 13.4329C3.68635 13.3186 3.5404 13.1961 3.40094 13.0654C3.36436 13.0322 3.32662 12.9996 3.29062 12.9653C3.14429 12.8265 3.00483 12.6796 2.86993 12.5275C2.85278 12.5075 2.83449 12.4892 2.81734 12.4703C3.5913 12.1015 4.41122 11.8381 5.25517 11.6873C5.64616 12.7621 6.16263 13.787 6.79388 14.7407C6.71447 14.7265 6.63332 14.7185 6.55502 14.7013ZM8.00913 14.4864C7.35865 13.5645 6.82366 12.5663 6.4161 11.5141C7.47467 11.4002 8.54242 11.4002 9.60099 11.5141L9.60042 11.5147C9.19243 12.5661 8.65807 13.564 8.00913 14.4864ZM13.1478 12.5281C13.0134 12.6802 12.8734 12.8271 12.7271 12.966C12.6911 13.0002 12.6533 13.0328 12.6168 13.066C12.4758 13.1948 12.3298 13.3173 12.1789 13.4335C12.1395 13.4638 12.0995 13.4935 12.0595 13.5227C11.904 13.637 11.7439 13.7447 11.5793 13.8456L11.465 13.9148C11.292 14.0158 11.1144 14.1093 10.9323 14.1955C10.8991 14.2109 10.8665 14.2281 10.8334 14.2435C10.6436 14.3292 10.4498 14.4053 10.2532 14.4721C10.2235 14.483 10.196 14.495 10.1635 14.5053C9.96515 14.5716 9.76336 14.6265 9.55759 14.6768C9.52557 14.6842 9.49472 14.6945 9.46214 14.7014C9.38383 14.7185 9.30265 14.7265 9.22321 14.7408C9.85446 13.7871 10.371 12.7622 10.7619 11.6874C11.6059 11.8382 12.4258 12.1016 13.1997 12.4704C13.1832 12.4898 13.1649 12.5081 13.1478 12.5281ZM13.8748 11.5364C12.9987 11.089 12.0627 10.7699 11.0958 10.5887C11.2665 9.92808 11.3735 9.25262 11.4153 8.57157H14.8391C14.7515 9.62117 14.4215 10.6361 13.8748 11.5364Z" fill="#9E9E9E"></path></svg>