<svg xmlns:xlink="http://www.w3.org/1999/xlink" xmlns="http://www.w3.org/2000/svg" width="40" height="30" viewBox="0 0 40 30" fill="none"><path d="M8.54134 27.832C8.54134 27.2849 8.91677 26.8346 9.53002 26.8346C10.1161 26.8346 10.5119 27.2649 10.5119 27.832C10.5119 28.3991 10.1161 28.8311 9.53002 28.8311C8.91846 28.8311 8.54134 28.3808 8.54134 27.832ZM11.1795 27.832V26.2741H10.4711V26.6528C10.2469 26.3709 9.90545 26.1957 9.44168 26.1957C8.52775 26.1957 7.81257 26.8796 7.81257 27.832C7.81257 28.7861 8.52775 29.4699 9.44338 29.4699C9.90545 29.4699 10.2469 29.2931 10.4711 29.0129V29.3915H11.1795V27.832ZM35.1117 27.832C35.1117 27.2849 35.4871 26.8346 36.1004 26.8346C36.6881 26.8346 37.0823 27.2649 37.0823 27.832C37.0823 28.3991 36.6881 28.8311 36.1004 28.8311C35.4888 28.8311 35.1117 28.3808 35.1117 27.832ZM37.7499 27.832V25.0215H37.0415V26.6528C36.8173 26.3709 36.4758 26.1957 36.012 26.1957C35.0998 26.1957 34.3829 26.8796 34.3829 27.832C34.3829 28.7861 35.0998 29.4699 36.0137 29.4699C36.4758 29.4699 36.8173 29.2931 37.0415 29.0129V29.3915H37.7499V27.832ZM19.9706 26.8012C20.4259 26.8012 20.7198 27.0764 20.7945 27.5585H19.1042C19.1807 27.1081 19.4661 26.8012 19.9706 26.8012ZM19.9842 26.1957C19.0295 26.1957 18.3619 26.8596 18.3619 27.832C18.3619 28.8244 19.0584 29.4699 20.0318 29.4699C20.5227 29.4699 20.9712 29.3532 21.367 29.0329L21.0205 28.5309C20.749 28.738 20.4163 28.8528 20.0725 28.8578C19.6156 28.8578 19.2011 28.6543 19.0992 28.0939H21.5165C21.5253 28.0068 21.5304 27.9195 21.5318 27.832C21.525 26.8596 20.8964 26.1957 19.9859 26.1957H19.9842ZM28.5358 27.832C28.5358 27.2849 28.9112 26.8346 29.5245 26.8346C30.1105 26.8346 30.5063 27.2649 30.5063 27.832C30.5063 28.3991 30.1105 28.8311 29.5245 28.8311C28.9129 28.8311 28.5358 28.3808 28.5358 27.832ZM31.174 27.832V26.2741H30.4656V26.6528C30.2396 26.3709 29.8999 26.1957 29.4361 26.1957C28.5239 26.1957 27.807 26.8796 27.807 27.832C27.807 28.7861 28.5239 29.4699 29.4378 29.4699C29.8999 29.4699 30.2396 29.2931 30.4656 29.0129V29.3915H31.174V27.832ZM24.5369 27.832C24.5369 28.7794 25.2249 29.4699 26.2747 29.4699C26.7657 29.4699 27.0918 29.3649 27.4469 29.098L27.1071 28.5509C26.8596 28.7306 26.5605 28.8288 26.2526 28.8311C25.687 28.8244 25.2725 28.4325 25.2725 27.832C25.2725 27.2315 25.687 26.8412 26.2526 26.8346C26.5601 26.8346 26.8404 26.9313 27.1054 27.1148L27.4452 26.566C27.0918 26.2991 26.7657 26.1957 26.273 26.1957C25.2249 26.1957 24.5369 26.8863 24.5369 27.832ZM33.6677 26.1957C33.26 26.1957 32.9933 26.3792 32.8099 26.6528V26.2741H32.1066V29.3915H32.8167V27.6435C32.8167 27.1265 33.0477 26.8412 33.5115 26.8412C33.6542 26.8412 33.8036 26.8596 33.9531 26.9196L34.174 26.2808C34.0113 26.2249 33.8401 26.1961 33.6677 26.1957ZM14.6824 26.521C14.3426 26.3058 13.8721 26.1957 13.3539 26.1957C12.5283 26.1957 11.9966 26.5744 11.9966 27.1932C11.9966 27.7019 12.3924 28.0155 13.1212 28.1139L13.4559 28.1589C13.8449 28.2106 14.0283 28.309 14.0283 28.4858C14.0283 28.726 13.7684 28.8645 13.2843 28.8645C12.795 28.8645 12.44 28.7143 12.2022 28.5375L11.8675 29.0646C12.2565 29.3398 12.7475 29.4699 13.2775 29.4699C14.2186 29.4699 14.7639 29.0463 14.7639 28.4525C14.7639 27.9037 14.3341 27.6185 13.6257 27.5184L13.2928 27.4734C12.987 27.435 12.739 27.3766 12.739 27.1665C12.739 26.938 12.9717 26.8012 13.359 26.8012C13.7752 26.8012 14.1778 26.9513 14.3749 27.0681L14.6807 26.521H14.6824ZM23.8217 26.1957C23.4123 26.1957 23.1456 26.3792 22.9621 26.6528V26.2741H22.2606V29.3915H22.9689V27.6435C22.9689 27.1265 23.2 26.8412 23.6637 26.8412C23.8064 26.8412 23.9576 26.8596 24.1054 26.9196L24.3262 26.2808C24.1635 26.2249 23.9924 26.1961 23.82 26.1957H23.8217ZM17.7758 26.2741H16.6173V25.3267H15.9021V26.2741H15.2413V26.8929H15.9021V28.3157C15.9021 29.0396 16.196 29.4699 17.0335 29.4699C17.3392 29.4699 17.6943 29.3782 17.9185 29.2281L17.7147 28.6476C17.5233 28.7567 17.3073 28.8175 17.0861 28.8244C16.7328 28.8244 16.6173 28.6143 16.6173 28.3024V26.8929H17.7758V26.2741ZM7.18742 29.3915V27.435C7.18742 26.6978 6.69648 26.2007 5.90656 26.1957C5.49036 26.1891 5.06227 26.3125 4.76159 26.7495C4.64835 26.5716 4.48888 26.4265 4.29959 26.3292C4.1103 26.2318 3.89801 26.1858 3.68457 26.1957C3.49873 26.1862 3.31351 26.2237 3.14665 26.3046C2.97979 26.3855 2.83687 26.5071 2.73157 26.6578V26.2741H2.02148V29.3915H2.73666V27.6635C2.73666 27.1214 3.05094 26.8346 3.53508 26.8346C4.00564 26.8346 4.24347 27.1281 4.24347 27.6569V29.3915H4.95865V27.6635C4.95865 27.1214 5.28651 26.8346 5.75707 26.8346C6.23951 26.8346 6.47055 27.1281 6.47055 27.6569V29.3915H7.18742Z" fill="#231F20"></path><path d="M25.2118 20.9794H14.4756V2.51172H25.2118V20.9794Z" fill="#FF5F00"></path><path d="M15.1649 11.7441C15.1649 7.99791 16.9961 4.66199 19.85 2.51199C17.674 0.875701 15.0076 -0.00752962 12.2668 4.83592e-05C5.4904 4.83592e-05 0 5.25912 0 11.7441C0 18.2325 5.4904 23.4899 12.2651 23.4899C15.0059 23.4975 17.6723 22.6143 19.8484 20.978C16.9944 18.828 15.1632 15.4904 15.1632 11.7441" fill="#EB001B"></path><path d="M39.6863 11.7441C39.6863 18.2325 34.1958 23.4899 27.4212 23.4899C24.6803 23.4972 22.0141 22.614 19.8379 20.978C22.6918 18.828 24.5231 15.4904 24.5231 11.7441C24.5231 7.9979 22.6918 4.66199 19.8379 2.51199C22.0136 0.876266 24.6792 -0.006918 27.4195 4.08093e-05C34.1958 4.08093e-05 39.6863 5.25911 39.6863 11.7441Z" fill="#F79E1B"></path></svg>