<svg xmlns:xlink="http://www.w3.org/1999/xlink" xmlns="http://www.w3.org/2000/svg" width="56" height="40" viewBox="0 0 56 40" fill="none"><path d="M3.49531 0C3.53947 0.0905184 3.6376 0.0587147 3.70629 0.0782862C4.02766 0.176144 4.32449 0.33027 4.62624 0.472164C5.0629 0.675218 5.49221 0.890506 5.92643 1.1009C6.32875 1.29417 6.72862 1.48988 7.13095 1.68315C7.76387 1.98896 8.3968 2.29232 9.02972 2.59568C9.61113 2.87702 10.1925 3.15591 10.7739 3.43725C11.3014 3.69168 11.8264 3.94856 12.3538 4.20544C13.0505 4.54305 13.7448 4.8831 14.4415 5.21826C15.224 5.59502 16.0066 5.96443 16.7892 6.34118C17.4785 6.6739 18.1605 7.02129 18.8523 7.34667C19.5073 7.65492 20.155 7.97296 20.8075 8.28611C21.3374 8.54298 21.8673 8.8023 22.3996 9.05918C22.9958 9.34542 23.5968 9.62431 24.1905 9.91299C24.7424 10.1797 25.2919 10.4537 25.8439 10.7203C26.4719 11.0237 27.1049 11.3197 27.7329 11.6255C28.0812 11.7943 28.4198 11.9876 28.6577 12.3056C29.0208 12.7925 28.9398 13.3649 28.4468 13.8004C28.1205 14.0891 27.7206 14.2505 27.3379 14.4414C26.8375 14.6884 26.337 14.9331 25.8341 15.1753C25.4122 15.3808 24.9853 15.579 24.5609 15.782C23.9353 16.0829 23.3098 16.3887 22.6842 16.6896C21.985 17.0248 21.2859 17.3575 20.5867 17.6951C20.0372 17.9593 19.4901 18.2285 18.9406 18.4927C18.347 18.7789 17.7557 19.0651 17.1621 19.3538C16.5708 19.6401 15.9796 19.9287 15.3859 20.215C14.8315 20.4841 14.2722 20.7483 13.7178 21.0174C13.0211 21.355 12.3268 21.6975 11.6277 22.0327C10.9727 22.3483 10.3152 22.659 9.66264 22.9746C9.13521 23.229 8.61513 23.4932 8.08524 23.7427C7.4376 24.0461 6.79977 24.3641 6.15458 24.6724C5.61733 24.9293 5.08253 25.191 4.54773 25.4479C4.2558 25.5874 3.97123 25.7439 3.65722 25.8222C3.4487 25.8736 3.23773 25.925 3.01449 25.8491C2.82804 25.7855 2.7152 25.602 2.71765 25.4161C2.71765 25.0858 2.84276 24.7849 2.99977 24.5036C3.44625 23.6938 3.9099 22.8914 4.36374 22.0865C4.81759 21.2816 5.27143 20.4743 5.72527 19.6694C6.29195 18.6639 6.85864 17.6609 7.42288 16.6554C7.67065 16.2126 7.86445 15.7502 8.0141 15.2634C8.13921 14.8548 8.22998 14.4438 8.29131 14.0206C8.36736 13.5166 8.40661 13.0126 8.3649 12.5062C8.31829 11.9338 8.23243 11.3686 8.07297 10.8133C7.86445 10.0916 7.54063 9.42859 7.1702 8.78273C6.82675 8.18091 6.48821 7.57908 6.14722 6.97726C5.57317 5.95954 4.99912 4.93937 4.42507 3.92165C3.97123 3.11677 3.51739 2.31189 3.0611 1.50946C2.90655 1.2379 2.79125 0.954113 2.72256 0.650754C2.67349 0.433021 2.75445 0.105197 3.01449 0.0464824C3.03657 0.0415895 3.03166 0.022018 3.02921 0.00733933C3.18376 0 3.34076 0 3.49531 0Z" fill="#176FC0"></path><path d="M0.992688 34.9541C1.02703 34.9565 1.03194 34.937 1.03685 34.91C1.11535 34.4379 1.1914 33.9633 1.2748 33.4935C1.34104 33.1315 1.40237 32.7718 1.4637 32.4098C1.54466 31.9425 1.64524 31.4777 1.71883 31.0104C1.7679 30.6924 1.83659 30.3768 1.8832 30.0563C1.95434 29.589 2.05492 29.1242 2.13833 28.6569C2.17758 28.4416 2.21438 28.2264 2.24382 28.0086C2.25363 27.9303 2.28797 27.9034 2.36157 27.9034C3.35511 27.9108 4.34866 27.8716 5.33975 27.9254C5.90398 27.9548 6.44369 28.1065 6.90734 28.4637C7.25324 28.7303 7.47648 29.0753 7.59178 29.4936C7.75369 30.0783 7.71689 30.6606 7.59669 31.2453C7.46422 31.8887 7.15511 32.4269 6.65221 32.8526C6.34556 33.1119 5.99475 33.2954 5.61451 33.425C5.34711 33.5156 5.0748 33.5718 4.79759 33.6183C4.3045 33.699 3.80895 33.7064 3.31341 33.699C3.21038 33.6966 3.18094 33.7235 3.16867 33.8312C3.14169 34.0636 3.08526 34.2911 3.04601 34.5211C2.99695 34.8048 2.95034 35.0911 2.89882 35.3749C2.85466 35.6171 2.82277 35.8617 2.76635 36.1015C2.71728 36.3167 2.6903 36.5369 2.65841 36.7571C2.64123 36.8745 2.60689 36.9871 2.59953 37.1045C2.59462 37.1901 2.5382 37.2219 2.44743 37.2195C2.00586 37.2146 1.56428 37.217 1.12271 37.217C1.07855 37.217 1.03194 37.2073 0.990234 37.2293C0.992688 36.4709 0.992688 35.7125 0.992688 34.9541ZM3.9169 32.1969C4.13278 32.1969 4.34866 32.1871 4.55963 32.1309C4.97422 32.0208 5.28823 31.7884 5.46486 31.3896C5.61451 31.0495 5.65376 30.6899 5.62677 30.3278C5.58261 29.7383 5.23671 29.4789 4.73381 29.4104C4.50566 29.3786 4.2677 29.4031 4.03465 29.3982C3.98558 29.3982 3.96596 29.4104 3.95615 29.4618C3.9169 29.6404 3.89236 29.8214 3.86047 30C3.73781 30.6973 3.6127 31.3945 3.48513 32.0893C3.46796 32.1823 3.4974 32.1969 3.57345 32.1969C3.6863 32.1945 3.8016 32.1969 3.9169 32.1969Z" fill="#1970C1"></path><path d="M55.9642 23.4844C55.6698 23.5015 55.4122 23.6214 55.1743 23.7853C54.7081 24.1009 54.4162 24.551 54.2003 25.0575C54.0384 25.4367 53.9452 25.8354 53.8691 26.2415C53.771 26.7577 53.6827 27.2739 53.5944 27.7901C53.5797 27.8806 53.5478 27.9198 53.4448 27.9198C52.9222 27.9149 52.3997 27.9149 51.8747 27.9198C51.7864 27.9198 51.7545 27.91 51.7741 27.8048C51.8477 27.4134 51.8968 27.0171 51.9777 26.6281C52.0587 26.2366 52.1151 25.8428 52.1961 25.4538C52.277 25.0697 52.3138 24.6758 52.3923 24.2893C52.4537 23.981 52.5027 23.6728 52.5641 23.3645C52.6205 23.0881 52.6646 22.8067 52.7088 22.5254C52.753 22.2489 52.802 21.9749 52.8511 21.6985C52.8633 21.6227 52.9222 21.6324 52.9737 21.6324C53.403 21.6324 53.8324 21.6324 54.2617 21.6324C54.3475 21.6324 54.4334 21.6373 54.5192 21.63C54.6051 21.6227 54.6296 21.6594 54.6174 21.7352C54.5953 21.8795 54.5732 22.0239 54.5487 22.1658C54.5143 22.3688 54.4751 22.5743 54.4407 22.7774C54.4358 22.7994 54.4432 22.8239 54.4481 22.863C54.6198 22.5205 54.794 22.1927 55.0835 21.9529C55.3386 21.7425 55.6183 21.5811 55.9642 21.5762C55.9642 22.2122 55.9642 22.8483 55.9642 23.4844Z" fill="#1970C1"></path><path d="M23.3261 32.3294C23.4585 32.207 23.5199 32.0676 23.6057 31.9477C23.8412 31.6223 24.0964 31.319 24.4374 31.1012C24.9255 30.7881 25.453 30.6951 26.0049 30.8957C26.5103 31.0792 26.7066 31.4927 26.7581 31.9942C26.7703 32.1116 26.7605 32.229 26.7605 32.3709C26.8979 32.2633 26.9519 32.1239 27.0328 32.0064C27.3199 31.5954 27.6388 31.2211 28.1 31.0009C28.674 30.7269 29.2505 30.6829 29.7976 31.067C30.065 31.2529 30.1705 31.5416 30.2318 31.8499C30.3152 32.2755 30.2392 32.6939 30.1656 33.1098C30.1263 33.3422 30.092 33.5746 30.0503 33.8046C29.9938 34.1128 29.9301 34.4186 29.8736 34.7293C29.8221 35.0131 29.7804 35.2993 29.7289 35.5831C29.6847 35.8155 29.6578 36.0528 29.5989 36.2828C29.5719 36.3831 29.5596 36.4883 29.5474 36.5911C29.5228 36.7794 29.4787 36.9629 29.4468 37.1513C29.4394 37.2027 29.4124 37.2198 29.3658 37.2198C28.8188 37.2198 28.2692 37.2198 27.7222 37.2198C27.6363 37.2198 27.629 37.1684 27.6412 37.1073C27.7001 36.8455 27.7394 36.5813 27.7835 36.3195C27.8767 35.7642 27.9896 35.2137 28.0877 34.6608C28.1441 34.3477 28.1883 34.0296 28.2447 33.7165C28.2815 33.5036 28.333 33.2908 28.3723 33.078C28.3944 32.9654 28.3993 32.848 28.3772 32.7379C28.3453 32.5716 28.1343 32.4957 27.9332 32.5764C27.6486 32.6914 27.4474 32.9092 27.2659 33.1391C26.7311 33.8266 26.4171 34.6143 26.2527 35.4632C26.1914 35.7764 26.1497 36.092 26.0957 36.4076C26.054 36.6547 26.0025 36.8993 25.9559 37.144C25.9436 37.2027 25.9019 37.2222 25.8504 37.2222C25.3107 37.2222 24.771 37.2222 24.2313 37.2222C24.1577 37.2222 24.1405 37.1806 24.1503 37.1195C24.17 36.9898 24.192 36.8626 24.2141 36.7354C24.2558 36.4932 24.2975 36.251 24.3392 36.0088C24.3907 35.7201 24.4447 35.4314 24.4987 35.1403C24.5355 34.9324 24.5723 34.7244 24.6115 34.5165C24.6557 34.2865 24.6949 34.0565 24.7391 33.8266C24.7636 33.7043 24.7857 33.5819 24.8029 33.4572C24.8225 33.3177 24.847 33.1783 24.8765 33.0413C24.8937 32.9605 24.901 32.8798 24.8912 32.7991C24.8618 32.5813 24.663 32.4859 24.4349 32.5813C24.1822 32.6841 23.9933 32.87 23.8241 33.0755C23.5051 33.4621 23.2647 33.8951 23.0807 34.3599C22.9311 34.7342 22.8256 35.1207 22.752 35.5195C22.6539 36.0504 22.5582 36.5837 22.4699 37.1146C22.4576 37.1904 22.4184 37.2271 22.3374 37.2271C21.81 37.2247 21.2825 37.2247 20.7551 37.2271C20.6742 37.2271 20.6374 37.2051 20.6545 37.1097C20.7183 36.7672 20.7821 36.4247 20.841 36.0822C20.9195 35.6247 21.0029 35.1672 21.0814 34.7073C21.1378 34.3746 21.2065 34.0443 21.2629 33.714C21.3169 33.4033 21.3635 33.0926 21.4175 32.7844C21.4837 32.4052 21.5573 32.026 21.626 31.6468C21.6628 31.4413 21.702 31.2358 21.7315 31.0278C21.7413 30.9618 21.7609 30.9373 21.8272 30.9373C22.3742 30.9398 22.9237 30.9398 23.4708 30.9373C23.5419 30.9373 23.5567 30.9691 23.5468 31.0278C23.5076 31.2529 23.4659 31.4804 23.4266 31.7055C23.3997 31.8963 23.3653 32.0994 23.3261 32.3294Z" fill="#1970C1"></path><path d="M26.8271 18.6104C27.7544 18.6104 28.6842 18.6128 29.6115 18.6079C29.7292 18.6079 29.7636 18.6397 29.7366 18.7523C29.6826 18.9749 29.6606 19.2048 29.6066 19.4275C29.5551 19.633 29.5281 19.8458 29.4986 20.0587C29.479 20.2079 29.4717 20.2201 29.3171 20.2201C28.1101 20.2201 26.9056 20.2201 25.6986 20.2177C25.5981 20.2177 25.5564 20.2372 25.5392 20.3498C25.4803 20.7339 25.3994 21.1155 25.3331 21.4996C25.2939 21.7247 25.2571 21.9522 25.2301 22.1797C25.2227 22.2384 25.1491 22.2972 25.2031 22.3461C25.2497 22.3877 25.3282 22.3608 25.3944 22.3608C26.2899 22.3608 27.1853 22.3632 28.0807 22.3608C28.1617 22.3608 28.2181 22.3632 28.1985 22.4708C28.115 22.9308 28.0316 23.3907 27.9556 23.8506C27.936 23.9607 27.882 23.9779 27.7839 23.9779C26.8884 23.9754 25.993 23.9754 25.0976 23.9754C24.8989 23.9754 24.9014 23.9754 24.8695 24.1662C24.7664 24.7681 24.6585 25.3699 24.553 25.9717C24.499 26.2849 24.45 26.6004 24.3935 26.9136C24.3396 27.2145 24.2782 27.513 24.2243 27.8139C24.212 27.8873 24.1826 27.9117 24.1041 27.9117C23.5227 27.9093 22.9437 27.9068 22.3623 27.9117C22.2691 27.9117 22.2494 27.875 22.2642 27.7968C22.3181 27.4934 22.3746 27.19 22.4285 26.8867C22.4678 26.6665 22.4948 26.4439 22.5438 26.2261C22.5929 26.0011 22.6272 25.7736 22.6689 25.5485C22.7205 25.2525 22.7769 24.9589 22.8284 24.6629C22.8799 24.3546 22.9339 24.0464 22.9903 23.7406C23.0148 23.6109 23.0394 23.4788 23.0566 23.3467C23.0811 23.1387 23.1252 22.9357 23.1645 22.7302C23.2185 22.4342 23.2724 22.1381 23.3264 21.8446C23.3706 21.6073 23.4098 21.3675 23.4589 21.1302C23.4981 20.9345 23.5276 20.7339 23.5644 20.5357C23.6404 20.1321 23.7066 19.7284 23.7778 19.3247C23.8121 19.129 23.8637 18.9357 23.8808 18.7376C23.8906 18.6153 23.9397 18.6055 24.0403 18.6055C24.6413 18.6079 25.2423 18.6079 25.8434 18.6079C26.1648 18.6104 26.4959 18.6104 26.8271 18.6104Z" fill="#1970C1"></path><path d="M12.0344 31.2975C12.054 31.1874 12.0737 31.1018 12.0859 31.0137C12.0933 30.955 12.1203 30.9281 12.1816 30.9281C12.6845 30.9281 13.1874 30.9281 13.6903 30.9281C13.7615 30.9281 13.7737 30.9623 13.7639 31.021C13.7222 31.2485 13.6805 31.4761 13.6388 31.7011C13.6192 31.8088 13.602 31.914 13.5824 32.0216C13.4867 32.5256 13.4033 33.032 13.3174 33.5384C13.2782 33.7659 13.2438 33.9959 13.2021 34.2234C13.1457 34.5317 13.0844 34.8399 13.028 35.1482C12.9617 35.5127 12.9028 35.8772 12.8391 36.2417C12.7949 36.4839 12.7704 36.7286 12.7041 36.9659C12.7041 36.9708 12.7041 36.9732 12.7017 36.9781C12.6526 37.2203 12.6526 37.2203 12.4024 37.2203C11.9314 37.2203 11.4628 37.2179 10.9918 37.2228C10.8986 37.2228 10.8642 37.1934 10.8814 37.1029C10.9109 36.9365 10.9256 36.7702 10.9722 36.6063C10.9894 36.5426 10.9845 36.4717 10.9894 36.3934C10.9207 36.4081 10.9059 36.457 10.879 36.4937C10.6165 36.846 10.3025 37.1322 9.8707 37.257C9.20589 37.4478 8.51899 37.3744 8.03571 36.7677C7.79039 36.4595 7.67019 36.0974 7.59659 35.7182C7.5279 35.3586 7.53281 34.9965 7.54998 34.6344C7.57451 34.1207 7.68 33.624 7.85418 33.1396C8.07006 32.5427 8.38407 32.0094 8.84281 31.569C9.36534 31.0675 9.98355 30.7886 10.7171 30.8033C11.2003 30.8082 11.6517 30.9281 12.0344 31.2975ZM9.43894 34.7396C9.43649 35.0014 9.44875 35.2583 9.52971 35.5102C9.6352 35.8332 9.89769 36.002 10.2411 35.7622C10.6091 35.5054 10.825 35.1286 11.0212 34.7445C11.2077 34.38 11.35 33.9959 11.4579 33.5996C11.5438 33.2815 11.6198 32.9635 11.6689 32.6381C11.6787 32.5794 11.664 32.5427 11.6125 32.5036C11.4702 32.3984 11.3181 32.3372 11.1439 32.2956C10.8741 32.2345 10.6312 32.2712 10.408 32.4277C9.99581 32.7189 9.78484 33.1494 9.62293 33.6069C9.50027 33.9714 9.44139 34.3506 9.43894 34.7396Z" fill="#1970C1"></path><path d="M32.0235 27.0714C31.8984 27.2549 31.761 27.4261 31.5966 27.5754C31.3292 27.8151 31.0201 27.9644 30.6595 28.0157C30.5344 28.0329 30.4117 28.0549 30.2842 28.0524C29.7273 28.0353 29.2955 27.7907 28.9938 27.3258C28.8098 27.042 28.719 26.724 28.6577 26.3913C28.5767 25.9583 28.5866 25.5204 28.6283 25.0898C28.6871 24.4953 28.8343 23.9204 29.1066 23.3797C29.3372 22.9222 29.6218 22.5137 30.007 22.1712C30.3185 21.8947 30.6767 21.6966 31.0741 21.5816C31.4273 21.4788 31.7929 21.4886 32.151 21.5376C32.5043 21.584 32.8208 21.7333 33.0882 21.995C33.1421 21.9021 33.1176 21.8067 33.1446 21.7235C33.1667 21.6574 33.1912 21.6256 33.2697 21.6256C33.7554 21.6305 34.2436 21.6305 34.7293 21.6256C34.8226 21.6256 34.8471 21.6599 34.8275 21.7406C34.7858 21.9045 34.7637 22.0709 34.7367 22.2372C34.6729 22.6213 34.5969 23.003 34.5282 23.3846C34.4889 23.6048 34.457 23.825 34.4178 24.0452C34.3614 24.3583 34.2976 24.669 34.2412 24.9821C34.1774 25.3369 34.116 25.6941 34.0523 26.0488C34.0081 26.2959 33.9615 26.5405 33.9198 26.7876C33.883 27.0053 33.8315 27.2206 33.8069 27.4408C33.7996 27.4971 33.78 27.5509 33.7701 27.6072C33.7137 27.9105 33.7137 27.9105 33.412 27.9105C32.9532 27.9105 32.4969 27.9081 32.0382 27.913C31.9376 27.913 31.9131 27.8885 31.9352 27.7858C31.9842 27.5534 32.0161 27.316 32.0554 27.0812C32.048 27.0787 32.0357 27.0763 32.0235 27.0714ZM30.5025 25.5253C30.5172 25.7601 30.5172 26.0219 30.6178 26.2763C30.7159 26.5307 30.9294 26.6359 31.182 26.5332C31.3685 26.4573 31.5034 26.3203 31.6285 26.1711C31.9499 25.7895 32.1535 25.3418 32.335 24.8818C32.4454 24.6005 32.5264 24.3094 32.6049 24.0207C32.6638 23.8079 32.6858 23.5852 32.7374 23.3699C32.757 23.2868 32.7325 23.2427 32.6711 23.1987C32.4994 23.0715 32.3031 23.0128 32.0995 22.9785C31.9965 22.9614 31.891 22.9614 31.7855 22.9907C31.4421 23.0886 31.2164 23.3235 31.0299 23.6097C30.657 24.1846 30.5123 24.8207 30.5025 25.5253Z" fill="#1970C1"></path><path d="M17.1226 34.3211C17.233 34.0886 17.3312 33.888 17.4244 33.6874C17.6476 33.2006 17.8709 32.7113 18.0941 32.2245C18.2732 31.833 18.4572 31.4465 18.6338 31.0551C18.6755 30.9645 18.7246 30.9254 18.8301 30.9278C19.4017 30.9352 19.9757 30.9303 20.5473 30.9303C20.6896 30.9303 20.6896 30.9352 20.6209 31.0722C20.1621 31.9725 19.7059 32.8752 19.2496 33.7755C18.8889 34.4874 18.5332 35.2018 18.1726 35.9161C17.9126 36.4274 17.6648 36.9436 17.3851 37.4427C17.0098 38.113 16.5682 38.7247 15.9476 39.1919C15.636 39.4268 15.2901 39.6005 14.9197 39.7326C14.586 39.8525 14.2426 39.921 13.8967 39.9895C13.7912 40.009 13.7176 40.0164 13.7029 39.8671C13.6734 39.5785 13.6195 39.2898 13.5778 39.0036C13.5753 38.9913 13.5778 38.9791 13.5729 38.9669C13.4968 38.6659 13.4944 38.7124 13.7814 38.6146C14.6547 38.3161 15.3269 37.795 15.7243 36.9388C15.82 36.7357 15.7709 36.5644 15.7488 36.381C15.7219 36.1706 15.663 35.9651 15.6237 35.7547C15.5673 35.4635 15.5158 35.1724 15.4618 34.8813C15.4226 34.6611 15.3858 34.4409 15.3416 34.2232C15.2852 33.9321 15.2214 33.6409 15.165 33.3498C15.1159 33.0905 15.0718 32.8312 15.0252 32.5694C14.9663 32.2612 14.9049 31.9529 14.8461 31.6422C14.8068 31.4416 14.7627 31.241 14.7357 31.0379C14.7259 30.9621 14.7406 30.9278 14.8289 30.9278C15.4005 30.9303 15.9745 30.9303 16.5461 30.9278C16.6197 30.9278 16.6394 30.9523 16.6492 31.0233C16.7154 31.515 16.7915 32.0043 16.8601 32.4936C16.8994 32.7798 16.9215 33.0685 16.973 33.3498C17.027 33.6605 17.0392 33.9786 17.1226 34.3211Z" fill="#1970C1"></path><path d="M40.5188 32.3175C40.6832 32.0631 40.8427 31.8282 41.0242 31.6105C41.3357 31.2411 41.7037 30.9548 42.1796 30.8447C42.6482 30.7371 43.1045 30.7787 43.497 31.0845C43.6687 31.2166 43.7816 31.4074 43.8429 31.6178C43.919 31.8796 43.9656 32.1487 43.9337 32.4202C43.9018 32.6869 43.8674 32.956 43.8135 33.2202C43.7718 33.4257 43.7399 33.6361 43.7055 33.8441C43.654 34.1474 43.5927 34.4508 43.5412 34.7566C43.4995 34.9915 43.47 35.2263 43.4259 35.4587C43.3866 35.6765 43.3351 35.8917 43.2958 36.1095C43.2443 36.3884 43.1953 36.6697 43.156 36.9511C43.1192 37.2153 43.1266 37.2177 42.8641 37.2177C42.3931 37.2177 41.9245 37.2177 41.4535 37.2177C41.2867 37.2177 41.2916 37.2128 41.3259 37.0538C41.3824 36.7749 41.4241 36.4936 41.4756 36.2147C41.5345 35.8893 41.5982 35.5639 41.6522 35.2361C41.7283 34.7762 41.8239 34.3211 41.8926 33.8612C41.9368 33.5652 42.0104 33.2716 42.0374 32.9731C42.0398 32.9364 42.0398 32.8998 42.0423 32.8631C42.0619 32.5426 41.8387 32.4936 41.6056 32.5768C41.3186 32.6771 41.1223 32.9046 40.9359 33.1346C40.5164 33.6581 40.2441 34.26 40.0503 34.8985C39.9742 35.148 39.9276 35.4049 39.8884 35.6642C39.8319 36.0336 39.7559 36.4006 39.6897 36.7676C39.67 36.8752 39.6357 36.9829 39.6308 37.0905C39.6259 37.203 39.5694 37.2226 39.4738 37.2226C39.0003 37.2202 38.5244 37.2202 38.0509 37.2202C37.7909 37.2202 37.8007 37.2226 37.8498 36.9682C37.9209 36.5963 37.9749 36.2245 38.0386 35.8526C38.0779 35.63 38.1221 35.4073 38.1662 35.1847C38.1883 35.0746 38.2006 34.9621 38.2202 34.852C38.306 34.348 38.3968 33.8465 38.4876 33.345C38.5293 33.1175 38.5587 32.8875 38.6004 32.6624C38.6569 32.3542 38.7206 32.0459 38.7771 31.7352C38.8139 31.5322 38.8457 31.3267 38.8752 31.1212C38.9022 30.9377 38.9071 30.9328 39.0837 30.9328C39.5817 30.9328 40.0822 30.9328 40.5802 30.9328C40.7224 30.9328 40.7151 30.9328 40.6906 31.0723C40.639 31.3683 40.5924 31.6667 40.5483 31.9628C40.536 32.0704 40.4845 32.178 40.5188 32.3175Z" fill="#1A70C1"></path><path d="M31.4462 34.6474C31.4364 34.2095 31.5051 33.7398 31.6425 33.2823C31.851 32.5973 32.1846 31.9857 32.7464 31.516C33.1267 31.1979 33.556 30.9851 34.0417 30.8799C34.6526 30.7478 35.261 30.7673 35.8595 30.9313C36.4679 31.0976 36.9733 31.4988 37.0763 32.2352C37.145 32.7343 37.0959 33.2113 36.8334 33.6493C36.6176 34.0089 36.2864 34.2315 35.9086 34.3905C35.4572 34.5789 34.9813 34.667 34.5005 34.7306C34.1398 34.7771 33.7768 34.8064 33.4137 34.8235C33.3597 34.826 33.2984 34.826 33.3058 34.9043C33.3401 35.2443 33.4039 35.5771 33.74 35.7556C33.9657 35.878 34.2085 35.9073 34.4661 35.8535C34.628 35.8193 34.7899 35.7972 34.9494 35.7508C35.3174 35.6382 35.6559 35.4645 35.9822 35.2664C36.0705 35.2125 36.1024 35.2321 36.1367 35.3079C36.2766 35.6309 36.3992 35.9611 36.5513 36.2792C36.5808 36.3428 36.566 36.3966 36.4998 36.4455C36.1245 36.722 35.7222 36.9593 35.283 37.1134C34.8071 37.2822 34.3116 37.3703 33.8013 37.336C33.5413 37.3189 33.2788 37.2969 33.0285 37.2211C32.4913 37.0572 32.0546 36.7611 31.7774 36.2596C31.5051 35.7703 31.4389 35.2394 31.4462 34.6474ZM35.31 32.6389C35.3198 32.4627 35.256 32.2817 35.0671 32.1716C34.8464 32.0419 34.6133 32.0517 34.3876 32.1594C34.1079 32.2939 33.9215 32.5239 33.7719 32.7857C33.6173 33.0548 33.4946 33.3386 33.4382 33.6468C33.4284 33.6957 33.3646 33.7496 33.4137 33.7887C33.4603 33.8278 33.529 33.7863 33.5879 33.7765C33.7694 33.7447 33.9509 33.7055 34.1325 33.6688C34.3435 33.6272 34.5495 33.5661 34.7384 33.4707C35.0647 33.3068 35.3149 33.0792 35.31 32.6389Z" fill="#1970C1"></path><path d="M51.0603 23.347C51.0505 23.9855 50.8199 24.5091 50.2802 24.876C49.9981 25.0669 49.6816 25.1843 49.3529 25.2675C48.9334 25.3727 48.509 25.4387 48.0797 25.4779C47.8565 25.4974 47.6332 25.5072 47.41 25.5195C47.3045 25.5244 47.2603 25.561 47.2726 25.676C47.2947 25.9305 47.3585 26.1629 47.54 26.3537C47.6676 26.4858 47.827 26.5519 48.0036 26.5665C48.4084 26.6008 48.7936 26.5176 49.1689 26.3635C49.4486 26.2485 49.7111 26.1066 49.9736 25.9549C50.03 25.9231 50.0521 25.9231 50.0766 25.9843C50.2164 26.3219 50.3563 26.6595 50.501 26.9947C50.5304 27.0632 50.5206 27.0925 50.4568 27.1415C49.9588 27.5231 49.4093 27.802 48.8009 27.9488C48.4207 28.0393 48.0282 28.0858 47.6381 28.0466C47.1745 28.0002 46.7255 27.8974 46.333 27.6283C46.0043 27.4032 45.7639 27.0974 45.6142 26.7256C45.4057 26.202 45.3763 25.6565 45.4106 25.1011C45.4278 24.8198 45.4597 24.5433 45.5235 24.2718C45.7393 23.347 46.1809 22.5568 46.9807 22.0088C47.253 21.8229 47.5621 21.7054 47.8859 21.6149C48.3618 21.4828 48.8451 21.4975 49.3259 21.5391C49.7135 21.5709 50.0889 21.6834 50.4127 21.911C50.7782 22.1678 50.9867 22.525 51.0382 22.9678C51.053 23.0926 51.053 23.2198 51.0603 23.347ZM48.6464 22.7794C48.5041 22.7966 48.3422 22.8406 48.2048 22.9434C47.7264 23.3054 47.5253 23.8241 47.3781 24.377C47.3535 24.4675 47.3854 24.5017 47.4836 24.4871C47.8785 24.4357 48.271 24.3574 48.6366 24.1984C48.9408 24.0663 49.1934 23.873 49.2523 23.5109C49.321 23.0926 49.11 22.8015 48.6464 22.7794Z" fill="#1970C1"></path><path d="M52.3281 30.793C52.9389 30.8003 53.5596 30.9911 54.1165 31.3777C54.1901 31.429 54.2637 31.4829 54.3397 31.5294C54.406 31.5685 54.4158 31.615 54.3839 31.6786C54.1999 32.0284 54.0134 32.3783 53.8344 32.733C53.7927 32.8186 53.7583 32.8309 53.6774 32.777C53.4173 32.6009 53.1303 32.4688 52.8335 32.3734C52.5661 32.2878 52.2839 32.2462 52.0067 32.3171C51.862 32.3538 51.7295 32.4223 51.6903 32.5936C51.6436 32.7893 51.6952 32.9409 51.8669 33.0535C52.0901 33.2003 52.3428 33.281 52.5857 33.3887C52.8457 33.5036 53.1033 33.6235 53.3339 33.7948C53.6945 34.0614 53.9251 34.4088 53.9865 34.8516C54.0699 35.4412 54.0257 36.0186 53.6823 36.5323C53.4688 36.8528 53.1646 37.0632 52.7991 37.1806C52.1662 37.3861 51.5234 37.3861 50.8782 37.2614C50.341 37.1562 49.8528 36.9238 49.4112 36.6033C49.3254 36.5421 49.188 36.5079 49.1708 36.4149C49.1536 36.3244 49.2591 36.2339 49.3106 36.1434C49.4726 35.862 49.632 35.5782 49.7866 35.2944C49.8356 35.2039 49.8822 35.1868 49.9681 35.2504C50.2748 35.4755 50.6207 35.6223 50.9764 35.7519C51.2168 35.8375 51.4572 35.8522 51.7074 35.8449C51.9429 35.84 52.0607 35.7079 52.1048 35.588C52.176 35.3923 52.1024 35.1746 51.9282 35.0522C51.6829 34.881 51.3983 34.7978 51.1285 34.6853C50.7556 34.5311 50.3999 34.355 50.1398 34.0296C49.9804 33.829 49.8847 33.6039 49.8234 33.352C49.762 33.1 49.7645 32.848 49.7915 32.6009C49.8626 31.933 50.1963 31.4266 50.8022 31.1159C51.2609 30.881 51.754 30.8028 52.3281 30.793Z" fill="#1970C1"></path><path d="M37.8026 28.0527C36.8532 28.0527 36.0338 27.7444 35.3003 27.1842C35.2366 27.1353 35.2267 27.0986 35.2635 27.035C35.4696 26.6802 35.6757 26.3255 35.8768 25.9683C35.9136 25.8998 35.948 25.89 36.0069 25.9341C36.2914 26.142 36.603 26.2986 36.9342 26.416C37.2408 26.5261 37.5524 26.6166 37.8885 26.5285C38.1902 26.4503 38.3104 26.0931 38.1068 25.8558C37.9743 25.7017 37.7903 25.6356 37.6137 25.5549C37.2874 25.4081 36.9464 25.3004 36.6398 25.1072C36.2031 24.8307 35.9455 24.4442 35.8744 23.9402C35.8082 23.4534 35.8523 22.9763 36.1001 22.5408C36.3503 22.1005 36.7477 21.8387 37.2163 21.6748C37.7413 21.4913 38.2859 21.4718 38.828 21.5403C39.3383 21.6039 39.8069 21.8118 40.2288 22.1152C40.2901 22.1592 40.3515 22.2081 40.4177 22.2473C40.4864 22.2864 40.479 22.3427 40.452 22.3941C40.2705 22.7463 40.0841 23.0937 39.905 23.446C39.8657 23.5268 39.8363 23.5365 39.7602 23.4901C39.4389 23.2895 39.1003 23.1231 38.7275 23.0375C38.5091 22.9885 38.2883 22.9788 38.0725 23.0252C37.886 23.0644 37.7584 23.1818 37.7413 23.3898C37.7241 23.5855 37.8394 23.7078 37.9866 23.7959C38.2442 23.9451 38.5238 24.0503 38.7986 24.1653C39.2745 24.3659 39.6842 24.6399 39.9222 25.1145C40.0154 25.3029 40.062 25.5108 40.0792 25.7188C40.1086 26.0686 40.089 26.4209 39.9835 26.7561C39.8167 27.2894 39.4708 27.6637 38.9384 27.8594C38.7176 27.9401 38.4895 27.9915 38.2515 28.0184C38.097 28.038 37.94 28.0478 37.8026 28.0527Z" fill="#1970C1"></path><path d="M44.4048 22.9692C44.3066 22.9692 44.2085 22.9692 44.1104 22.9692C43.9362 22.9692 43.9264 22.979 43.8994 23.1527C43.8086 23.7545 43.6909 24.349 43.5854 24.9484C43.5462 25.1759 43.5143 25.4059 43.4726 25.6309C43.4358 25.8242 43.3818 26.015 43.3818 26.2156C43.3793 26.3893 43.4799 26.4823 43.659 26.4725C43.7939 26.4652 43.9313 26.4432 44.0466 26.3796C44.1472 26.3233 44.1496 26.382 44.1619 26.4432C44.1791 26.5435 44.1913 26.6438 44.2036 26.7441C44.2208 26.9055 44.2748 27.0621 44.2698 27.2236C44.2674 27.3141 44.3189 27.3924 44.3189 27.4854C44.3189 27.5587 44.3017 27.6052 44.238 27.6395C43.9117 27.823 43.5756 27.9722 43.1954 28.0162C43.0383 28.0358 42.8813 28.0603 42.7243 28.048C42.3048 28.0138 41.9344 27.8866 41.7038 27.4976C41.6032 27.3288 41.5468 27.1453 41.5321 26.9545C41.5076 26.6242 41.537 26.2988 41.613 25.9759C41.6646 25.7459 41.6793 25.5062 41.7259 25.2738C41.8044 24.8995 41.8584 24.5227 41.9271 24.1484C41.9712 23.9087 41.9957 23.6665 42.0497 23.4291C42.0767 23.3117 42.0767 23.1894 42.1209 23.0769C42.1503 23.0035 42.1356 22.9643 42.0448 22.9668C41.8903 22.9717 41.7332 22.9643 41.5787 22.9692C41.4977 22.9717 41.4659 22.9496 41.483 22.864C41.5468 22.546 41.5836 22.2255 41.6646 21.9124C41.667 21.905 41.667 21.8952 41.667 21.8879C41.7087 21.6286 41.7087 21.6286 41.9761 21.6286C42.0791 21.6286 42.1797 21.6261 42.2828 21.6286C42.3515 21.631 42.3882 21.6017 42.4054 21.538C42.5011 21.1858 42.5992 20.8335 42.6924 20.4787C42.7489 20.2635 42.7513 20.2683 42.9893 20.2219C43.2959 20.1631 43.6001 20.0898 43.9043 20.0213C44.0638 19.987 44.2208 19.9479 44.3802 19.9136C44.4465 19.8989 44.4931 19.8965 44.4735 20.0017C44.4121 20.3148 44.3729 20.6304 44.3116 20.9436C44.2723 21.1417 44.2429 21.3399 44.2061 21.538C44.1913 21.6188 44.2159 21.6286 44.2821 21.6286C44.5152 21.6261 44.7482 21.6359 44.9813 21.6261C45.1015 21.6212 45.1236 21.6677 45.1039 21.768C45.0671 21.9637 45.0328 22.1594 44.9984 22.3552C44.969 22.5191 44.9347 22.683 44.9077 22.8469C44.893 22.935 44.8586 22.9815 44.7556 22.9717C44.6329 22.9594 44.5176 22.9692 44.4048 22.9692Z" fill="#1970C1"></path><path d="M48.266 32.2652C48.136 32.2652 48.0035 32.2676 47.8735 32.2652C47.8195 32.2652 47.7999 32.2774 47.7876 32.3361C47.6748 32.9453 47.5693 33.5545 47.4613 34.1636C47.4074 34.4694 47.3583 34.7752 47.2945 35.0786C47.2626 35.2254 47.2185 35.3771 47.2308 35.5336C47.243 35.6633 47.3117 35.7416 47.4417 35.7489C47.6012 35.7587 47.7606 35.7416 47.9054 35.6682C47.9839 35.629 48.0084 35.6584 48.0182 35.7318C48.0501 35.9862 48.0796 36.2407 48.1237 36.4902C48.1409 36.5905 48.1605 36.6884 48.1679 36.7887C48.1728 36.8596 48.1507 36.8988 48.0894 36.9355C47.6797 37.1777 47.2381 37.3269 46.7622 37.3391C46.3059 37.3513 45.8889 37.2608 45.6018 36.8596C45.4522 36.6492 45.3933 36.4095 45.3786 36.1575C45.3639 35.8712 45.3982 35.5899 45.4571 35.3086C45.5037 35.0786 45.5282 34.8462 45.5699 34.6162C45.6215 34.3178 45.6803 34.0193 45.7318 33.7208C45.7858 33.4248 45.83 33.1288 45.8888 32.8328C45.9183 32.686 45.9232 32.5367 45.9698 32.3948C45.9968 32.3166 45.9943 32.2554 45.8741 32.2627C45.7245 32.2725 45.5724 32.2627 45.4203 32.2652C45.3541 32.2676 45.3197 32.2554 45.3344 32.1771C45.3712 31.9741 45.4056 31.7686 45.4399 31.5631C45.4669 31.4114 45.4988 31.2621 45.5184 31.1105C45.5405 30.9465 45.5577 30.9245 45.7147 30.9245C45.8545 30.9245 45.9919 30.9221 46.1317 30.9245C46.2053 30.927 46.2372 30.9001 46.2568 30.8267C46.3599 30.4352 46.4752 30.0463 46.5782 29.6548C46.5954 29.5888 46.6322 29.5619 46.6935 29.5472C47.0149 29.4787 47.3338 29.4004 47.6552 29.3441C47.8293 29.3123 48.0011 29.2634 48.1728 29.2218C48.3102 29.1876 48.3322 29.2071 48.3175 29.3417C48.2807 29.6622 48.1973 29.9753 48.1556 30.2933C48.1311 30.4719 48.0918 30.6505 48.0575 30.8291C48.0428 30.9147 48.0722 30.9245 48.1409 30.9245C48.3739 30.9221 48.607 30.9294 48.84 30.9221C48.9431 30.9196 48.9701 30.9563 48.9529 31.0493C48.8989 31.3453 48.845 31.6413 48.791 31.9349C48.7763 32.0156 48.7665 32.0964 48.7517 32.1747C48.7395 32.2383 48.7051 32.2676 48.634 32.2652C48.5113 32.2603 48.3887 32.2652 48.266 32.2652Z" fill="#1970C1"></path></svg>