<svg xmlns:xlink="http://www.w3.org/1999/xlink" xmlns="http://www.w3.org/2000/svg" width="74" height="28" viewBox="0 0 74 28" fill="none"><path d="M8.76568 20.8231C7.17692 20.8425 5.59206 20.8115 4.01889 20.5603C2.90131 20.3825 1.87719 20.0153 1.10617 19.1341C0.498709 18.4384 0.233916 17.6035 0.128778 16.7068C0.0431102 15.9995 0.0197462 15.2922 0.000276158 14.5811C-0.00361785 14.3878 0.0314282 14.3144 0.249492 14.3144C1.77984 14.326 3.31018 14.3221 4.84052 14.3144C5.0469 14.3144 5.08584 14.3839 5.07806 14.5656C5.06637 14.8748 5.09753 15.184 5.16372 15.4932C5.28833 16.0768 5.65437 16.4324 6.22679 16.5793C6.44485 16.6334 6.6707 16.6914 6.89266 16.6914C8.04918 16.703 9.2057 16.7532 10.3622 16.6411C11.1916 16.56 11.7212 16.015 11.7796 15.1956C11.7952 14.9521 11.8186 14.7125 11.7913 14.469C11.6979 13.5375 11.2851 13.1123 10.335 13.0312C8.84356 12.9036 7.34826 12.7993 5.85296 12.6717C4.84831 12.5867 3.84755 12.4862 2.88184 12.1577C1.43716 11.6707 0.545437 10.7083 0.25728 9.22022C-0.0542399 7.61622 -0.0464519 6.01222 0.265068 4.40822C0.588271 2.73851 1.69806 1.81862 3.26345 1.34322C4.36156 1.00696 5.5025 0.979905 6.63566 0.929659C8.29061 0.856223 9.94556 0.856223 11.6005 0.995365C12.3443 1.05721 13.0802 1.1577 13.7812 1.43212C15.4088 2.06985 16.1876 3.33759 16.433 4.99184C16.5303 5.6489 16.5108 6.30983 16.4875 6.97075C16.4797 7.14854 16.4213 7.19879 16.2461 7.19879C14.6962 7.19492 13.1464 7.19106 11.5966 7.19879C11.4019 7.19879 11.3708 7.12535 11.3786 6.95916C11.3902 6.67701 11.3552 6.39486 11.3124 6.11657C11.2345 5.60252 10.958 5.27012 10.4518 5.11939C9.97671 4.97638 9.49386 4.92227 9.00321 4.91067C8.1699 4.88748 7.33658 4.91067 6.51494 5.07687C5.86854 5.20828 5.51029 5.59092 5.40515 6.23252C5.34285 6.59971 5.33506 6.97075 5.39347 7.33793C5.51808 8.09162 5.93084 8.4588 6.76416 8.52451C8.11148 8.63273 9.45881 8.71776 10.81 8.81825C11.9432 8.90328 13.0763 8.97672 14.1706 9.3323C15.806 9.86568 16.8107 10.917 16.9937 12.6563C17.1495 14.125 17.1417 15.5898 16.8925 17.047C16.5926 18.8249 15.4673 19.8569 13.7889 20.3825C12.7882 20.6956 11.7563 20.7845 10.7166 20.8154C10.0585 20.8386 9.41208 20.8231 8.76568 20.8231Z" fill="#102A8F"></path><path d="M73.9904 20.8543C73.8308 20.8543 73.6867 20.8543 73.5426 20.8543C71.9344 20.8543 70.3262 20.8504 68.7179 20.8582C68.5271 20.8582 68.4493 20.8002 68.3986 20.6224C68.1105 19.6252 67.8068 18.6319 67.5147 17.6347C67.4641 17.4608 67.3901 17.3951 67.1954 17.3951C64.9291 17.4028 62.6628 17.4028 60.4004 17.3951C60.2134 17.3951 60.1472 17.4646 60.1044 17.6231C59.8279 18.6242 59.5476 19.6252 59.2672 20.6263C59.2361 20.7384 59.236 20.862 59.0413 20.862C57.2267 20.8543 55.4121 20.8582 53.5586 20.8582C53.7105 20.348 53.8506 19.861 53.9986 19.3779C55.8405 13.2981 57.6823 7.22223 59.5125 1.14249C59.5943 0.86807 59.6955 0.767578 60.0032 0.767578C62.4953 0.783038 64.9836 0.779173 67.4758 0.771443C67.7522 0.771443 67.873 0.837149 67.9586 1.11543C69.9407 7.60874 71.9305 14.0943 73.9203 20.5838C73.9437 20.6611 73.9632 20.7461 73.9904 20.8543ZM63.8427 4.92252C63.7531 4.94185 63.7609 4.99982 63.7453 5.04234C62.9704 7.76721 62.1955 10.4921 61.4128 13.2169C61.3466 13.4488 61.4323 13.472 61.6309 13.472C63.1106 13.4682 64.5903 13.4643 66.07 13.4759C66.3076 13.4759 66.3426 13.4295 66.2764 13.2053C65.6923 11.2419 65.1199 9.27458 64.5436 7.31113C64.3099 6.51106 64.0763 5.71872 63.8427 4.92252Z" fill="#102A8F"></path><path d="M38.707 10.8399C38.707 7.58941 38.7109 4.3389 38.6992 1.08838C38.6992 0.829419 38.7654 0.767578 39.0263 0.767578C42.3401 0.775308 45.6578 0.763713 48.9716 0.779173C50.1164 0.786903 51.2652 0.821689 52.3594 1.23139C54.174 1.91164 55.2682 3.23349 55.5914 5.10031C55.9847 7.35751 55.9769 9.6379 55.5096 11.8874C55.0696 14.0016 53.4964 15.3466 51.3275 15.536C49.8244 15.6674 48.3135 15.6558 46.8026 15.6635C46.0277 15.6674 45.2528 15.6751 44.4779 15.6597C44.2287 15.6558 44.1469 15.7022 44.1469 15.9727C44.1625 17.511 44.1508 19.0493 44.1586 20.5876C44.1586 20.8041 44.1119 20.862 43.886 20.862C42.2583 20.8504 40.6306 20.8504 39.0029 20.862C38.7615 20.862 38.6953 20.8118 38.6953 20.5644C38.7109 17.3216 38.707 14.0789 38.707 10.8399ZM44.1586 8.07255C44.1586 8.97697 44.1625 9.88139 44.1547 10.7858C44.1547 10.9366 44.1742 11.0177 44.3572 11.0139C45.8369 10.9868 47.3166 11.0718 48.7925 10.9211C49.6258 10.8361 50.0269 10.4882 50.1476 9.65722C50.2917 8.66004 50.2955 7.65898 50.1398 6.66566C49.9957 5.74191 49.3649 5.2124 48.4147 5.2008C47.083 5.18534 45.7474 5.19694 44.4156 5.18534C44.2092 5.18534 44.1508 5.23946 44.1547 5.4443C44.1664 6.32167 44.1586 7.19904 44.1586 8.07255Z" fill="#0F298F"></path><path d="M36.6739 15.2856C36.6739 15.3899 36.6739 15.4634 36.6739 15.5368C36.6739 16.6383 36.67 17.736 36.6778 18.8376C36.6778 19.0115 36.631 19.1197 36.4792 19.2125C31.3313 22.4668 24.2325 20.6928 21.5106 15.0421C21.421 14.8604 21.3315 14.787 21.1212 14.787C20.0815 14.7986 19.0418 14.787 18.0021 14.7986C17.7646 14.8024 17.7451 14.7445 17.8386 14.5435C18.2552 13.6777 18.6641 12.8042 19.0652 11.9307C19.1392 11.7684 19.2365 11.7258 19.4039 11.7297C19.7388 11.7413 20.0698 11.7258 20.4047 11.7374C20.5605 11.7413 20.6111 11.6949 20.5916 11.5403C20.5488 11.1345 20.5332 10.7248 20.5838 10.319C20.6111 10.0948 20.4514 10.145 20.3385 10.145C19.5247 10.1412 18.7108 10.1373 17.897 10.1489C17.675 10.1528 17.5932 10.1334 17.714 9.88993C18.1306 9.03576 18.5356 8.17385 18.9328 7.30421C19.0184 7.11868 19.1197 7.0723 19.3105 7.07617C19.8985 7.08776 20.4865 7.0723 21.0745 7.0839C21.2536 7.08776 21.3471 7.03752 21.4288 6.86746C23.0565 3.4546 25.7823 1.4641 29.5284 0.969369C32.663 0.551943 35.455 1.44477 37.846 3.52804C38.0212 3.68264 38.029 3.79473 37.9355 3.99185C37.5851 4.70689 37.2541 5.43352 36.9153 6.15242C36.8802 6.22972 36.8374 6.30316 36.7907 6.39592C34.8982 4.22762 32.5579 3.30387 29.7231 3.87203C27.7722 4.2624 26.2769 5.36781 25.1632 7.06844C28.9248 7.06844 32.6319 7.06844 36.3896 7.06844C36.1443 7.58636 35.9184 8.06949 35.6926 8.54876C35.4823 8.9971 35.2681 9.44545 35.0695 9.89767C34.9878 10.0832 34.8748 10.1412 34.6723 10.1412C31.269 10.1334 27.8656 10.1412 24.4623 10.1296C24.1897 10.1296 24.1079 10.2069 24.1235 10.4658C24.1468 10.7866 24.143 11.1074 24.143 11.4282C24.143 11.6601 24.2286 11.7374 24.4739 11.7336C27.593 11.7258 30.7121 11.7297 33.8312 11.7297C33.9364 11.7297 34.0454 11.7297 34.1505 11.7297C34.1817 11.865 34.0999 11.95 34.0571 12.0428C33.6677 12.8815 33.2627 13.7125 32.885 14.5512C32.7954 14.7445 32.6903 14.7947 32.4878 14.7947C30.2526 14.787 28.0136 14.7908 25.7784 14.7908C25.6733 14.7908 25.5643 14.7908 25.4513 14.7908C27.3555 18.0491 33.1654 19.3748 36.6739 15.2856ZM18.0372 14.6053C19.0807 14.6053 20.0737 14.6208 21.0589 14.5976C21.3977 14.5899 21.6041 14.6556 21.7131 14.9918C21.7754 15.1928 21.8961 15.3783 22.0013 15.5638C24.6998 20.3256 30.9068 22.0494 35.7705 19.4135C36.3156 19.1197 36.5687 18.8105 36.5103 18.165C36.4363 17.3882 36.4947 16.5997 36.4947 15.788C32.702 19.5642 27.0907 18.1341 25.0542 14.6053C25.1749 14.6053 25.2761 14.6053 25.3812 14.6053C27.706 14.6053 30.0307 14.6014 32.3554 14.6092C32.554 14.6092 32.663 14.5628 32.7526 14.3657C33.0719 13.6468 33.4185 12.9395 33.7534 12.2244C33.8974 11.9191 33.8974 11.9191 33.5431 11.9191C30.4629 11.9191 27.3828 11.9152 24.3026 11.9268C24.0573 11.9268 23.9755 11.8495 23.9677 11.6253C23.9444 11.1693 23.921 10.7132 23.9405 10.2571C23.9521 9.97497 24.0573 9.93632 24.3026 9.93632C26.6273 9.94405 28.9521 9.94018 31.2768 9.94018C32.3749 9.94018 33.473 9.93245 34.5711 9.94405C34.7697 9.94791 34.8631 9.8822 34.941 9.70828C35.2136 9.0976 35.5057 8.49078 35.7899 7.88397C35.8834 7.68298 35.9729 7.48587 36.082 7.24623C32.3165 7.24623 28.5977 7.24623 24.8595 7.24623C24.8789 7.19212 24.8828 7.16506 24.8945 7.13801C26.2769 4.61026 29.4622 3.10288 32.3204 3.59761C34.0065 3.88749 35.4239 4.63345 36.5726 5.88573C36.7089 6.0326 36.7556 6.02874 36.8374 5.84321C37.1022 5.25959 37.3631 4.6721 37.659 4.10394C37.8031 3.83338 37.7486 3.69037 37.5228 3.50485C34.8865 1.34428 31.8726 0.582863 28.5393 1.34042C25.2761 2.08251 22.9475 4.02277 21.5534 7.05298C21.4795 7.21145 21.3977 7.26169 21.2263 7.25783C20.6189 7.2501 20.0114 7.26169 19.4001 7.2501C19.2287 7.24623 19.1392 7.29648 19.0691 7.45881C18.7537 8.15839 18.4188 8.85023 18.0956 9.54981C18.041 9.66963 17.9476 9.77785 17.9593 9.94018C18.8082 9.94018 19.6493 9.94791 20.4943 9.93632C20.7162 9.93245 20.8097 9.9711 20.7824 10.2185C20.724 10.7209 20.7474 11.2311 20.7941 11.7336C20.8136 11.9152 20.7396 11.923 20.6033 11.923C20.2295 11.9191 19.8595 11.923 19.4857 11.9191C19.3767 11.9191 19.2871 11.9191 19.2287 12.0505C18.851 12.8892 18.4538 13.7202 18.0372 14.6053Z" fill="#1E348E"></path><path d="M44.384 23.6422C44.6916 23.333 45.0031 23.2016 45.3808 23.2441C45.5016 23.2557 45.6106 23.2905 45.7118 23.3485C46.0506 23.5417 46.0506 23.5417 46.4244 23.3485C47.0475 23.0238 47.7095 23.3407 47.764 24.0403C47.8146 24.6703 47.7795 25.3042 47.7873 25.9381C47.7873 26.054 47.7328 26.0811 47.6277 26.0927C47.0553 26.1584 47.0397 26.1429 47.0358 25.5825C47.0358 25.1535 47.0358 24.7244 47.0319 24.2993C47.028 24.0751 46.9891 23.8625 46.7087 23.82C46.4595 23.7852 46.2142 23.963 46.1596 24.2413C46.1246 24.4423 46.1207 24.6471 46.1168 24.852C46.109 25.2037 46.109 25.5516 46.1168 25.9033C46.1207 26.0386 46.0779 26.0849 45.9338 26.0965C45.377 26.1313 45.377 26.1352 45.377 25.5863C45.377 25.1496 45.377 24.709 45.3692 24.2722C45.3653 24.0596 45.3185 23.8509 45.0499 23.8239C44.789 23.7968 44.5943 23.9012 44.4891 24.1524C44.4151 24.3379 44.4268 24.535 44.4268 24.7283C44.4229 25.1187 44.419 25.509 44.4307 25.8955C44.4346 26.0502 44.3762 26.0927 44.2282 26.0965C43.6792 26.1197 43.6792 26.1236 43.6792 25.567C43.6792 24.9061 43.6909 24.2413 43.6714 23.5804C43.6636 23.3369 43.7493 23.2789 43.9712 23.2982C44.1776 23.3137 44.4385 23.2209 44.384 23.6422Z" fill="#162F92"></path><path d="M19.0654 24.1594C19.0654 23.5951 19.0732 23.0308 19.0615 22.4665C19.0576 22.281 19.116 22.2385 19.2912 22.2424C20.0934 22.2501 20.8995 22.2578 21.7016 22.2385C22.017 22.2308 21.9197 22.4318 21.9275 22.5864C21.9392 22.7526 21.9625 22.9072 21.6899 22.8956C21.1526 22.8724 20.6113 22.8956 20.0739 22.8878C19.9104 22.884 19.8325 22.9033 19.8325 23.1004C19.8286 23.742 19.8208 23.742 20.4633 23.742C20.8255 23.742 21.1876 23.7497 21.5498 23.7381C21.725 23.7343 21.7912 23.7768 21.7834 23.9623C21.7639 24.4841 21.8379 24.3797 21.3745 24.3875C20.9345 24.3952 20.4906 24.3952 20.0506 24.3836C19.8909 24.3797 19.8169 24.4184 19.8325 24.5923C19.8559 24.8629 19.7235 25.2069 19.8831 25.3808C20.0311 25.547 20.3816 25.4233 20.6425 25.431C21.0241 25.4388 21.4057 25.4465 21.7873 25.431C22.1105 25.4194 21.982 25.6475 21.9976 25.7944C22.017 25.9528 22.0326 26.092 21.7756 26.0881C20.9423 26.0726 20.109 26.0765 19.2757 26.0881C19.0849 26.092 19.0498 26.0224 19.0498 25.8523C19.0693 25.288 19.0654 24.7237 19.0654 24.1594Z" fill="#152E91"></path><path d="M10.9739 23.6344C11.0323 23.5069 10.9349 23.3407 11.0556 23.3175C11.2425 23.2789 11.445 23.302 11.6358 23.3175C11.702 23.3214 11.6865 23.4141 11.6865 23.4682C11.6709 24.3997 11.7254 25.3351 11.6553 26.2665C11.6164 26.7767 11.3516 27.0666 10.8531 27.171C10.4248 27.2599 9.99647 27.2521 9.57981 27.113C9.27608 27.0125 9.09695 26.7999 9.02686 26.4907C8.99571 26.3477 9.02686 26.2511 9.1982 26.2936C9.47078 26.3593 9.77451 26.2588 10.0043 26.5642C10.1483 26.7497 10.4637 26.6801 10.6974 26.5951C10.9038 26.5216 10.9466 26.34 10.9505 26.1429C10.9505 25.9999 10.9505 25.8569 10.9505 25.6636C10.7441 25.853 10.565 26.0153 10.3197 26.0656C9.67716 26.1931 9.11642 25.7911 8.97234 25.0761C8.90225 24.7283 8.91393 24.3765 9.02686 24.0403C9.29555 23.2363 10.234 22.9928 10.8726 23.5571C10.9038 23.5726 10.931 23.5958 10.9739 23.6344ZM10.9622 24.6394C10.9583 24.106 10.7169 23.7968 10.3119 23.8084C9.96531 23.8161 9.74725 24.0635 9.7122 24.4732C9.66548 25.0413 9.84071 25.4085 10.199 25.4703C10.3898 25.5051 10.5689 25.4665 10.7169 25.3312C10.9232 25.1418 10.97 24.9022 10.9622 24.6394Z" fill="#132C90"></path><path d="M0.478944 24.8164C0.685326 24.7352 0.774888 24.828 0.86445 25.056C1.04747 25.5353 1.91972 25.6628 2.27408 25.2879C2.49604 25.0483 2.44542 24.7545 2.13389 24.6309C1.90804 24.542 1.66661 24.4879 1.43297 24.4222C1.17597 24.3526 0.92286 24.283 0.697008 24.1439C0.350442 23.9313 0.167424 23.6221 0.183 23.2201C0.198576 22.8182 0.393276 22.5012 0.759312 22.3389C1.31226 22.0915 1.88468 22.0993 2.43763 22.3389C2.78809 22.4896 2.96721 22.7834 3.04509 23.1467C3.07235 23.2742 3.05677 23.3515 2.89712 23.3515C2.76083 23.3477 2.62065 23.3515 2.48825 23.367C2.35196 23.3825 2.28576 23.3515 2.23125 23.2085C2.07548 22.8027 1.36288 22.6674 1.03189 22.9689C0.86445 23.1235 0.899496 23.3515 1.11756 23.4752C1.33952 23.6028 1.59652 23.6375 1.83795 23.711C2.05212 23.7767 2.27408 23.8269 2.48046 23.912C2.95553 24.1091 3.18528 24.4801 3.17749 24.9903C3.1697 25.458 2.87376 25.8793 2.42205 26.0378C1.91583 26.2117 1.40182 26.2155 0.891708 26.0493C0.525672 25.9295 0.28035 25.6744 0.136272 25.3227C-0.0272766 24.9014 -0.00391255 24.8589 0.478944 24.8164Z" fill="#152E91"></path><path d="M63.6319 22.262C63.9706 22.1499 64.0875 22.3354 64.1965 22.6176C64.617 23.6921 65.061 24.7627 65.5049 25.8294C65.5828 26.0188 65.5866 26.0961 65.3374 26.0884C64.7689 26.0768 64.7533 26.0961 64.5703 25.5589C64.4769 25.2883 64.3522 25.1647 64.0524 25.1994C63.772 25.2304 63.4839 25.2265 63.1996 25.1994C62.9309 25.1724 62.7985 25.2767 62.7518 25.5241C62.7479 25.5434 62.7401 25.5628 62.7362 25.5782C62.5454 26.1039 62.4286 26.1657 61.864 26.0807C61.6498 26.0498 61.7744 25.9338 61.8056 25.8526C62.1054 25.0642 62.413 24.2757 62.7207 23.4872C62.8297 23.2051 62.9504 22.9306 63.04 22.6446C63.1334 22.3509 63.2658 22.1344 63.6319 22.262ZM63.6241 23.1355C63.4488 23.6148 63.3048 24.0206 63.1568 24.4226C63.1101 24.5462 63.149 24.5733 63.2697 24.5733C63.5228 24.5694 63.7759 24.5694 64.029 24.5733C64.1225 24.5733 64.177 24.5578 64.1303 24.4419C63.9667 24.0283 63.811 23.6186 63.6241 23.1355Z" fill="#152E91"></path><path d="M33.6604 24.156C33.6604 23.6033 33.6682 23.0467 33.6565 22.494C33.6526 22.3123 33.6916 22.2389 33.894 22.2466C34.4431 22.266 34.9922 22.2466 35.5412 22.266C36.1837 22.2853 36.5965 22.7066 36.6237 23.3366C36.651 24.0555 36.2772 24.5232 35.6152 24.6082C35.292 24.6507 34.9688 24.6584 34.6456 24.643C34.482 24.6352 34.4236 24.6855 34.4314 24.8517C34.4431 25.2034 34.4314 25.5513 34.4392 25.903C34.4431 26.0383 34.4042 26.0846 34.2601 26.0924C33.6604 26.1233 33.6604 26.1272 33.6604 25.5319C33.6604 25.072 33.6604 24.6121 33.6604 24.156ZM34.4392 23.4371C34.4392 24.0207 34.4392 24.0207 35.0272 23.9975C35.144 23.9936 35.2608 23.9782 35.3777 23.955C35.6619 23.9009 35.8255 23.7038 35.8216 23.4255C35.8177 23.1627 35.6347 22.9501 35.3582 22.9076C35.2414 22.8882 35.1245 22.8921 35.0077 22.8882C34.4392 22.8844 34.4392 22.8844 34.4392 23.4371Z" fill="#122C90"></path><path d="M73.1566 25.8206C72.8061 26.1028 72.4323 26.2342 71.9962 26.1182C71.6496 26.0255 71.416 25.7588 71.3887 25.4148C71.3615 25.0283 71.5211 24.7461 71.8716 24.5993C72.1987 24.4601 72.5569 24.4408 72.8918 24.3442C72.9814 24.3171 73.1216 24.3287 73.1138 24.1664C73.106 24.0195 73.0592 23.8997 72.9113 23.8456C72.6426 23.7451 72.3778 23.8185 72.1831 24.0466C72.113 24.1316 71.564 24.1239 71.5133 24.0311C71.4939 23.9963 71.5055 23.9345 71.5211 23.892C71.5484 23.8185 71.5951 23.7567 71.6263 23.6833C71.8988 23.0764 73.3941 23.1344 73.6862 23.548C73.8381 23.7606 73.8497 24.0002 73.8575 24.2437C73.8731 24.6804 73.8069 25.1172 73.8575 25.5539C73.8653 25.6119 73.8848 25.6738 73.8731 25.7279C73.8419 25.8515 74.1028 25.9984 73.8809 26.0796C73.5655 26.1878 73.2734 26.0719 73.1566 25.8206ZM73.0982 24.7732C72.9113 24.8157 72.7399 24.8544 72.5725 24.893C72.5452 24.9007 72.518 24.9123 72.4907 24.9201C72.2104 25.0128 72.1052 25.1674 72.1753 25.3839C72.2454 25.6042 72.5063 25.7008 72.7594 25.6042C73.0592 25.4805 73.1371 25.3027 73.0982 24.7732Z" fill="#162F92"></path><path d="M29.7934 23.2383C30.6462 23.2383 31.2575 23.849 31.2497 24.6915C31.2458 25.5341 30.615 26.1641 29.7895 26.1564C28.9094 26.1487 28.337 25.5573 28.3448 24.6645C28.3487 23.8296 28.9445 23.2383 29.7934 23.2383ZM30.4748 24.7147C30.4554 24.5795 30.4515 24.4519 30.4164 24.3321C30.3385 24.0383 30.0893 23.8412 29.8089 23.8335C29.5208 23.8258 29.2677 23.9958 29.1742 24.2973C29.0847 24.5795 29.0769 24.8693 29.1976 25.1476C29.3105 25.4143 29.5169 25.5612 29.8128 25.5535C30.1088 25.5419 30.3035 25.3757 30.4008 25.109C30.4437 24.9814 30.4515 24.8423 30.4748 24.7147Z" fill="#152E91"></path><path d="M41.6695 25.2693C41.8564 24.6934 42.0472 24.2064 42.168 23.7039C42.2536 23.3561 42.4211 23.244 42.7521 23.2981C42.8455 23.3135 42.9468 23.3019 43.0441 23.3019C43.0714 23.4218 43.013 23.5029 42.9818 23.5918C42.6275 24.5581 42.2809 25.5244 41.9187 26.4906C41.6929 27.0897 41.3191 27.2907 40.6843 27.2211C40.3455 27.1863 40.4624 26.9312 40.439 26.7573C40.404 26.5254 40.5948 26.6452 40.6804 26.6452C41.1127 26.6336 41.358 26.2974 41.2061 25.8954C40.9141 25.1147 40.6259 24.3339 40.3183 23.557C40.2326 23.3445 40.2716 23.2942 40.4974 23.2981C41.0036 23.3058 41.0036 23.2981 41.1672 23.7774C41.3191 24.245 41.4787 24.7088 41.6695 25.2693Z" fill="#132C90"></path><path d="M39.0098 25.8095C38.6555 26.0878 38.2856 26.2385 37.8455 26.1226C37.4717 26.0221 37.2342 25.7476 37.2108 25.3766C37.1874 25.0249 37.3899 24.7234 37.7443 24.5881C38.0558 24.4683 38.3907 24.4374 38.71 24.3524C38.8112 24.3253 38.967 24.333 38.9553 24.1591C38.9398 24.0045 38.8852 23.8654 38.71 23.8383C38.4452 23.7958 38.1804 23.7494 38.013 24.0509C37.9624 24.1398 37.3899 24.1166 37.3432 24.0277C37.3237 23.9929 37.3393 23.9349 37.3588 23.8924C37.4211 23.7262 37.5145 23.5793 37.6547 23.4673C38.048 23.1542 39.0527 23.158 39.4382 23.4711C39.6017 23.6064 39.6679 23.7842 39.6718 23.9852C39.6796 24.4142 39.6757 24.8394 39.6718 25.2684C39.6718 25.4732 39.6757 25.6819 39.7536 25.8713C39.8471 26.0916 39.7341 26.1071 39.5745 26.0878C39.3603 26.0569 39.0566 26.2231 39.0098 25.8095ZM38.932 24.7659C38.7256 24.8162 38.5153 24.8587 38.3128 24.9205C38.0286 25.0056 37.9273 25.1718 38.0052 25.3843C38.0909 25.6124 38.3323 25.7051 38.5854 25.6085C38.9008 25.481 39.0021 25.2413 38.932 24.7659Z" fill="#142D91"></path><path d="M50.1784 24.8964C49.9331 24.8964 49.6878 24.908 49.4425 24.8926C49.2672 24.8848 49.24 24.966 49.275 25.1013C49.3334 25.3332 49.4658 25.511 49.7073 25.5689C49.9409 25.6269 50.1395 25.5535 50.2485 25.3293C50.3498 25.1283 50.5094 25.2404 50.6301 25.2597C51.0663 25.3255 51.0935 25.4066 50.7937 25.7429C50.4043 26.1874 49.8981 26.2337 49.3685 26.0946C48.8428 25.9555 48.5936 25.5574 48.5118 25.0549C48.4651 24.7573 48.4729 24.4558 48.5585 24.1582C48.726 23.5862 49.1738 23.2422 49.7657 23.2383C50.4004 23.2345 50.8365 23.5514 51.0079 24.1427C51.2142 24.8385 51.1753 24.8926 50.4705 24.8926C50.3731 24.8964 50.2758 24.8964 50.1784 24.8964ZM49.7929 24.4519C49.9098 24.4519 50.0266 24.4442 50.1434 24.4558C50.3459 24.4751 50.377 24.3785 50.3264 24.2162C50.2602 23.992 50.1239 23.8451 49.8825 23.8142C49.645 23.7833 49.4658 23.8838 49.349 24.0848C49.1894 24.3592 49.2439 24.4519 49.5593 24.4558C49.6372 24.4519 49.7151 24.4519 49.7929 24.4519Z" fill="#142D91"></path><path d="M15.6814 24.8925C15.436 24.8925 15.1907 24.9003 14.9454 24.8887C14.7896 24.8809 14.7585 24.9466 14.7935 25.0781C14.8558 25.3216 14.9882 25.5109 15.2413 25.5689C15.475 25.6192 15.6658 25.5496 15.7787 25.3177C15.8761 25.1244 16.0396 25.2404 16.1681 25.2597C16.6003 25.3254 16.6237 25.3873 16.3356 25.7274C15.989 26.1371 15.5334 26.2105 15.0311 26.1216C14.5326 26.0327 14.2328 25.7351 14.0887 25.2713C13.9797 24.9196 13.9797 24.564 14.0731 24.2045C14.2289 23.5977 14.6845 23.2383 15.2998 23.2383C15.9501 23.2383 16.3901 23.5823 16.5497 24.2123C16.7211 24.8964 16.7211 24.8964 16.0357 24.8964C15.9189 24.8925 15.7982 24.8925 15.6814 24.8925ZM15.3348 24.4519C15.4711 24.4519 15.6074 24.4519 15.7437 24.4519C15.8332 24.4519 15.8994 24.4365 15.8722 24.3205C15.8215 24.077 15.7203 23.8799 15.4516 23.8219C15.2024 23.7678 15.0116 23.8567 14.8831 24.0731C14.8247 24.1698 14.7507 24.2934 14.8052 24.3978C14.8636 24.5099 14.9999 24.4403 15.1012 24.4519C15.179 24.4596 15.2569 24.4519 15.3348 24.4519Z" fill="#132C90"></path><path d="M69.886 24.8927C69.6407 24.8927 69.3954 24.8965 69.1501 24.8927C69.0294 24.8888 68.9632 24.9158 68.9865 25.055C69.0294 25.3062 69.1618 25.4917 69.411 25.5652C69.6407 25.6309 69.851 25.5729 69.9561 25.3449C70.0535 25.14 70.2092 25.2328 70.3339 25.2598C70.4624 25.2869 70.6687 25.2328 70.7077 25.3526C70.7544 25.5072 70.6064 25.6541 70.4935 25.7739C70.0963 26.1913 69.6018 26.2338 69.0839 26.0908C68.5582 25.9478 68.3129 25.5458 68.235 25.0434C68.1922 24.7574 68.196 24.4636 68.2778 24.1776C68.4492 23.5747 68.9048 23.2307 69.5278 23.2384C70.1586 23.2461 70.6025 23.5979 70.7505 24.2085C70.9141 24.8811 70.9024 24.8927 70.2092 24.8927C70.1002 24.8927 69.9912 24.8927 69.886 24.8927ZM69.5239 24.452C69.5823 24.452 69.6446 24.4636 69.6991 24.4482C69.8237 24.4211 70.0145 24.5371 70.0574 24.3709C70.1002 24.2047 70.0068 24.0307 69.8588 23.9148C69.6135 23.7177 69.2396 23.7872 69.0761 24.0655C69.0177 24.166 68.9476 24.282 68.9982 24.3941C69.0527 24.5139 69.189 24.4366 69.2903 24.452C69.3681 24.4598 69.446 24.452 69.5239 24.452Z" fill="#132C90"></path><path d="M24.657 25.7118C24.3065 26.0558 23.9327 26.249 23.4537 26.1137C23.1072 26.0171 22.8891 25.7968 22.8463 25.4451C22.7684 24.7764 22.8268 24.1039 22.8112 23.4353C22.8073 23.3154 22.8735 23.3 22.9748 23.2923C23.5472 23.2459 23.5472 23.242 23.5472 23.8102C23.5472 24.2199 23.5433 24.6257 23.5589 25.0354C23.5706 25.4142 23.703 25.5688 23.9911 25.5804C24.3143 25.5958 24.583 25.3794 24.5986 25.0393C24.6219 24.5561 24.6219 24.0691 24.6103 23.5821C24.6064 23.3657 24.6492 23.2768 24.8945 23.2845C25.3618 23.3039 25.3618 23.2884 25.3618 23.7445C25.3618 24.4247 25.3501 25.105 25.3696 25.7852C25.3774 26.0364 25.2917 26.1253 25.0581 26.079C24.9023 26.048 24.6219 26.2142 24.6648 25.8471C24.6687 25.8161 24.6609 25.7814 24.657 25.7118Z" fill="#142D91"></path><path d="M58.2893 23.2383C58.7487 23.2421 59.1615 23.2924 59.4263 23.7021C59.5392 23.876 59.5665 23.992 59.29 24.019C59.0525 24.0422 58.8344 24.1466 58.6631 23.8567C58.5696 23.7021 58.0751 23.7137 57.9154 23.8258C57.7597 23.9301 57.7636 24.0809 57.9544 24.1543C58.1802 24.2432 58.4217 24.2896 58.6553 24.3591C58.8227 24.4094 58.9941 24.4558 59.1537 24.5253C59.6483 24.7457 59.7884 25.2752 59.4691 25.7119C58.9746 26.3922 57.5221 26.2917 57.1211 25.5535C57.0276 25.3834 57.0042 25.2713 57.2573 25.2674C57.3742 25.2674 57.491 25.252 57.6078 25.2288C57.7324 25.2056 57.7908 25.252 57.8531 25.3641C58.0089 25.6501 58.4489 25.7428 58.7254 25.565C58.8149 25.5071 58.8656 25.4298 58.8617 25.3254C58.8578 25.2095 58.776 25.1554 58.6787 25.1244C58.3983 25.0433 58.1101 24.9776 57.8337 24.8887C57.3041 24.7225 57.0587 24.4133 57.1172 24.0036C57.1756 23.5745 57.5299 23.2847 58.0595 23.246C58.1413 23.2421 58.2308 23.2383 58.2893 23.2383Z" fill="#142D91"></path><path d="M6.33964 23.7029C6.67063 23.328 7.02109 23.2004 7.43775 23.2507C7.8622 23.3009 8.16203 23.5638 8.17761 23.9851C8.20487 24.6344 8.18929 25.2876 8.19708 25.9369C8.19708 26.0529 8.14646 26.0799 8.04132 26.0877C7.4728 26.1418 7.4728 26.1456 7.4728 25.5891C7.4728 25.191 7.48448 24.7929 7.46501 24.3948C7.44554 23.9773 7.29757 23.8111 7.00162 23.8111C6.67063 23.8111 6.4331 24.0353 6.41752 24.4102C6.39805 24.874 6.38637 25.3417 6.40195 25.8094C6.40973 26.049 6.32796 26.1224 6.10211 26.0915C6.01644 26.0799 5.92688 26.0838 5.83731 26.0915C5.69713 26.107 5.6543 26.049 5.6543 25.9099C5.65819 25.1021 5.66208 24.2981 5.6543 23.4903C5.6543 23.328 5.7166 23.2855 5.86068 23.3048C5.89962 23.3087 5.93856 23.3087 5.9775 23.3048C6.21114 23.2816 6.44089 23.27 6.33964 23.7029Z" fill="#122C90"></path><path d="M52.5425 23.7025C52.8579 23.3469 53.185 23.2116 53.5822 23.2426C54.065 23.2812 54.3688 23.5595 54.3844 24.0426C54.4077 24.6649 54.3921 25.2872 54.3999 25.9095C54.4038 26.0563 54.3454 26.0834 54.2091 26.0911C53.6718 26.1143 53.6718 26.122 53.6679 25.5887C53.664 25.1596 53.6718 24.7345 53.6445 24.3093C53.6211 23.9537 53.4732 23.8146 53.1967 23.8146C52.8929 23.8146 52.6593 24.0194 52.6204 24.3286C52.562 24.804 52.6048 25.2794 52.5853 25.7549C52.5814 25.8669 52.6749 26.0486 52.4997 26.0795C52.3011 26.1143 52.0908 26.0873 51.8883 26.0679C51.8299 26.0602 51.8532 25.9674 51.8532 25.9133C51.8532 25.1055 51.8532 24.3016 51.8494 23.4938C51.8494 23.3624 51.8766 23.2889 52.0246 23.3083C52.0713 23.316 52.1219 23.3121 52.1726 23.3083C52.4179 23.2773 52.6437 23.2735 52.5425 23.7025Z" fill="#122C90"></path><path d="M56.1086 22.3125C56.1086 22.5946 56.1203 22.8188 56.1047 23.0391C56.0891 23.2362 56.1437 23.3406 56.3578 23.2981C56.5954 23.2556 56.6265 23.3793 56.6226 23.5802C56.6187 23.7735 56.6226 23.9358 56.35 23.8856C56.1631 23.8508 56.093 23.9204 56.1008 24.1213C56.1164 24.4885 56.1086 24.8596 56.1047 25.2306C56.1047 25.4625 56.1982 25.6017 56.4435 25.5205C56.6304 25.4587 56.6226 25.5553 56.6343 25.679C56.6732 26.0925 56.6693 26.1003 56.2449 26.1582C55.7036 26.2278 55.3999 25.9843 55.3804 25.4393C55.3687 24.991 55.3765 24.5465 55.3765 24.0982C55.3765 23.9899 55.396 23.8701 55.2247 23.8894C54.9443 23.9242 55.0339 23.7155 55.0261 23.5802C55.0183 23.445 54.9716 23.2672 55.2208 23.302C55.3064 23.3136 55.396 23.2865 55.3726 23.1821C55.2597 22.6178 55.7581 22.5715 56.1086 22.3125Z" fill="#122C90"></path><path d="M12.5657 24.1864C12.5657 23.6222 12.5696 23.0579 12.5618 22.4936C12.5579 22.3158 12.593 22.2385 12.8032 22.2423C13.3056 22.2501 13.3056 22.2385 13.3056 22.7448C13.3056 23.7768 13.2978 24.8049 13.3094 25.8368C13.3133 26.0455 13.2471 26.0997 13.0485 26.0919C12.4761 26.0687 12.5735 26.1692 12.5657 25.6165C12.5618 25.1373 12.5657 24.6619 12.5657 24.1864Z" fill="#193293"></path><path d="M66.8251 23.6146C67.0588 23.2784 67.3508 23.1663 67.7285 23.2784C67.8765 23.3209 67.9855 23.3827 67.8765 23.5644C67.8415 23.6224 67.822 23.6919 67.8103 23.7576C67.7714 23.9316 67.7207 24.0166 67.5027 23.9277C67.2223 23.8156 67.0042 23.9663 66.9264 24.291C66.8212 24.7123 66.868 25.1413 66.8641 25.5703C66.8563 26.1462 66.8641 26.1424 66.28 26.0921C66.1554 26.0805 66.1086 26.0457 66.1125 25.9182C66.1164 25.1027 66.1164 24.2833 66.1125 23.4677C66.1125 23.3402 66.1593 23.29 66.2839 23.3016C66.3617 23.3054 66.4435 23.3131 66.5175 23.3016C66.7511 23.2629 66.8757 23.3363 66.8251 23.6146Z" fill="#173092"></path><path d="M26.9665 23.5956C27.2079 23.2593 27.4961 23.1743 27.8582 23.2825C28.0217 23.3328 28.0879 23.4062 27.9984 23.5724C27.9633 23.6381 27.9322 23.7154 27.9166 23.7889C27.8816 23.9473 27.8387 24.0092 27.6479 23.9357C27.3208 23.8082 27.0833 23.986 27.0249 24.3764C26.9509 24.8479 26.9665 25.3233 26.9782 25.7987C26.9859 26.019 26.9353 26.1272 26.6939 26.0886C26.6082 26.077 26.5187 26.0808 26.4291 26.0886C26.2889 26.1002 26.2422 26.0461 26.2422 25.9069C26.2461 25.103 26.25 24.2952 26.2422 23.4913C26.2422 23.3328 26.3006 23.2825 26.4447 23.3019C26.5031 23.3096 26.5615 23.3096 26.6199 23.3019C26.8458 23.2593 26.982 23.3251 26.9665 23.5956Z" fill="#132C90"></path><path d="M4.72349 24.7039C4.72349 25.0942 4.7157 25.4807 4.72738 25.8711C4.73127 26.0334 4.68455 26.0875 4.51321 26.0875C3.9992 26.0953 3.9992 26.103 3.9992 25.589C3.9992 24.9087 4.00699 24.2285 3.99531 23.5482C3.99141 23.3434 4.04593 23.2854 4.25621 23.2892C4.72738 23.3008 4.72738 23.2892 4.72738 23.7685C4.72349 24.0816 4.72349 24.3947 4.72349 24.7039Z" fill="#102A8F"></path><path d="M4.36501 22.261C4.70768 22.1605 4.71936 22.3422 4.73494 22.605C4.75441 22.9219 4.61033 22.9297 4.36112 22.9374C4.06907 22.949 3.9834 22.8794 3.9834 22.5741C3.9834 22.2649 4.08854 22.176 4.36501 22.261Z" fill="#173092"></path><path d="M18.0376 14.6047C18.4543 13.7196 18.8476 12.8886 19.2331 12.0499C19.2915 11.9185 19.3811 11.9185 19.4901 11.9185C19.8639 11.9185 20.2338 11.9146 20.6077 11.9224C20.744 11.9224 20.8141 11.9146 20.7985 11.733C20.7479 11.2305 20.7284 10.7203 20.7868 10.2179C20.8141 9.9705 20.7206 9.93184 20.4986 9.93571C19.6575 9.9473 18.8125 9.93957 17.9636 9.93957C17.9481 9.77724 18.0415 9.66902 18.0999 9.5492C18.4231 8.85349 18.7541 8.15778 19.0734 7.4582C19.1435 7.29974 19.237 7.24949 19.4044 7.24949C20.0119 7.25722 20.6194 7.24563 21.2307 7.25722C21.402 7.26109 21.4838 7.21084 21.5578 7.05237C22.948 4.02216 25.2805 2.07804 28.5437 1.33981C31.873 0.582257 34.887 1.34367 37.531 3.51197C37.7569 3.6975 37.8114 3.83664 37.6673 4.11106C37.3675 4.67922 37.1066 5.26671 36.8457 5.85034C36.7639 6.03586 36.7133 6.03973 36.5809 5.89285C35.4322 4.64057 34.0108 3.89462 32.3286 3.60474C29.4665 3.10614 26.2812 4.61352 24.8989 7.14127C24.8872 7.16446 24.8794 7.19151 24.8638 7.24949C28.5982 7.24949 32.3208 7.24949 36.0863 7.24949C35.9773 7.48526 35.8878 7.68624 35.7943 7.88723C35.51 8.49404 35.218 9.10086 34.9454 9.71154C34.8675 9.88546 34.7741 9.95117 34.5755 9.9473C33.4774 9.93571 32.3793 9.94344 31.2811 9.94344C28.9564 9.94344 26.6317 9.9473 24.307 9.93957C24.0578 9.93957 23.9526 9.97822 23.9448 10.2604C23.9293 10.7203 23.9526 11.1725 23.9721 11.6286C23.9838 11.8528 24.0655 11.9301 24.307 11.9301C27.3871 11.9185 30.4673 11.9224 33.5475 11.9224C33.9018 11.9224 33.9018 11.9224 33.7577 12.2277C33.4228 12.9389 33.0763 13.6462 32.757 14.3689C32.6713 14.5661 32.5623 14.6124 32.3598 14.6124C30.0351 14.6047 27.7103 14.6086 25.3856 14.6086C25.2805 14.6086 25.1792 14.6086 25.0585 14.6086C27.0951 18.1374 32.7063 19.5636 36.4991 15.7913C36.4991 16.6029 36.4446 17.3914 36.5147 18.1683C36.5731 18.8138 36.32 19.1191 35.7748 19.4167C30.9112 22.0527 24.7081 20.3289 22.0056 15.5671C21.9005 15.3816 21.7798 15.1961 21.7175 14.9951C21.6084 14.6588 21.402 14.5892 21.0633 14.6008C20.0742 14.6202 19.0851 14.6047 18.0376 14.6047Z" fill="#FDBE01"></path></svg>