<svg xmlns:xlink="http://www.w3.org/1999/xlink" xmlns="http://www.w3.org/2000/svg" width="31" height="30" viewBox="0 0 31 30" fill="none"><g fill="none"><path d="M12.8755 29.9084C12.1009 29.7788 11.7071 29.6622 11.1163 29.5197C7.04651 28.535 3.86944 26.3194 1.59823 22.8471C1.53258 22.7434 1.4932 22.6268 1.51945 22.4195C1.75577 22.6398 1.97895 22.86 2.21526 23.0803C2.45157 23.3006 2.70101 23.5079 2.95045 23.7152C9.04203 28.7552 18.1531 28.1074 23.4308 22.264C27.0542 18.2475 27.0936 11.8082 23.5227 7.72688C23.247 7.41593 22.9844 7.11792 22.7612 6.74219C23.6146 7.09201 24.3629 7.61027 25.0324 8.21923C27.238 10.2275 28.7346 12.6115 29.1154 15.5785C29.1285 15.6303 29.1154 15.721 29.1285 15.7858C29.181 16.6928 29.1285 17.5997 29.1285 18.5067C29.0628 19.1027 28.8659 19.6987 28.669 20.2947C26.9754 25.4125 23.1551 28.1592 18.1006 29.5197C17.4967 29.6751 17.1948 29.7529 16.2758 29.9084C15.0548 30.025 13.9914 30.0379 12.8755 29.9084Z" fill="#2B2E7C"></path><path d="M16.4998 0.0701163C17.3295 0.199372 18.0295 0.380329 18.7943 0.587138C22.5146 1.58241 25.4443 3.68927 27.5961 6.88188C27.6739 6.99821 27.7387 7.14039 27.8035 7.28257C27.7646 7.32135 27.7257 7.3472 27.6998 7.38598C26.0017 5.75736 24.1091 4.4648 21.8795 3.66342C16.0202 1.53071 8.73504 3.75389 5.35172 8.75608C2.37025 13.1637 2.90173 19.0448 6.64801 22.8449C6.75172 22.9483 6.84245 23.0647 6.94616 23.181C6.92023 23.2068 6.89431 23.2327 6.86838 23.2585C3.8221 21.6299 1.87765 18.5666 0.918396 15.8264C0.788767 15.4515 0.646177 15.2189 0.568399 14.4304C0.490622 13.6419 0.464696 12.4269 0.568399 11.4575C0.762843 10.7466 0.905435 10.0099 1.15173 9.31188C2.65543 4.98182 5.83134 2.38379 10.0313 0.871498C11.0813 0.496657 12.3387 0.238146 13.2591 0.095965C13.8165 -0.0203649 15.748 -0.0332881 16.4998 0.0701163Z" fill="#6CB0FD"></path><path d="M12.8928 17.6348C12.8928 15.9746 12.8542 14.3274 12.9056 12.6803C12.9313 12.0136 12.7128 11.896 12.1217 11.909C10.8624 11.9613 9.60301 11.909 8.33081 11.9352C7.85534 11.9482 7.84248 11.7783 8.02239 11.4123C8.78057 9.86971 10.0528 9.07229 11.6848 8.92849C14.4091 8.69319 17.1591 8.86313 19.8963 8.83699C20.2818 8.83699 20.8729 8.61475 21.0272 8.95464C21.1814 9.29452 20.783 9.73899 20.5388 10.0919C19.6521 11.4123 18.3928 12.0005 16.8636 11.909C16.2339 11.8698 16.0797 12.0659 16.0925 12.6934C16.1311 14.8634 16.0668 17.0465 16.1182 19.2165C16.1696 21.3604 14.6661 22.5892 13.2526 23.2037C12.8285 23.3867 12.9056 23.086 12.8928 22.8507C12.8928 21.1251 12.8928 19.3734 12.8928 17.6348Z" fill="#6CB0FD"></path></g><defs><clipPath id="clip0"><path d="M0.5 0H30.5V30H0.5V0Z" fill="white"></path></clipPath></defs></svg>