<svg xmlns:xlink="http://www.w3.org/1999/xlink" xmlns="http://www.w3.org/2000/svg" width="172" height="172" viewBox="0 0 172 172" fill="none"><path d="M169.426 106.196C157.938 152.005 111.27 179.883 65.1881 168.46C19.1248 157.039 -8.91684 110.64 2.57614 64.8335C14.0584 19.0193 60.7264 -8.86196 106.795 2.55885C152.874 13.9797 180.913 60.3844 169.426 106.196Z" fill="#FF8300"></path><path d="M123.927 73.329C125.639 61.951 116.926 55.8344 105.011 51.754L108.876 36.341L99.4389 34.0029L95.6759 49.0097C93.1951 48.3951 90.6471 47.8152 88.1152 47.2407L91.905 32.135L82.4735 29.7969L78.6058 45.2045C76.5523 44.7396 74.5365 44.28 72.5798 43.7963L72.5906 43.7482L59.5763 40.5176L57.0659 50.5382C57.0659 50.5382 64.0676 52.1335 63.9198 52.2323C67.7418 53.1809 68.4325 55.6954 68.317 57.6889L63.9144 75.2476C64.1778 75.3144 64.5191 75.4106 64.8954 75.5603C64.5809 75.4828 64.245 75.3973 63.8982 75.3144L57.7271 99.9117C57.2594 101.066 56.0741 102.798 53.4024 102.14C53.4965 102.277 46.5432 100.438 46.5432 100.438L41.8584 111.178L54.1389 114.221C56.4235 114.79 58.6624 115.386 60.8664 115.947L56.9611 131.537L66.3871 133.875L70.2549 118.451C72.8298 119.146 75.3294 119.787 77.7753 120.391L73.921 135.743L83.3578 138.081L87.2632 122.521C103.355 125.548 115.455 124.327 120.549 109.857C124.653 98.2068 120.344 91.4864 111.878 87.104C118.044 85.6904 122.688 81.6581 123.927 73.329ZM102.366 103.388C99.4496 115.039 79.7186 108.74 73.3216 107.161L78.5037 86.5081C84.9006 88.0954 105.414 91.2378 102.366 103.388ZM105.285 73.1607C102.624 83.7585 86.2015 78.3741 80.8743 77.054L85.5726 58.3222C90.8998 59.6422 108.056 62.106 105.285 73.1607Z" fill="#FFFFFF"></path></svg>