<svg xmlns:xlink="http://www.w3.org/1999/xlink" xmlns="http://www.w3.org/2000/svg" width="172" height="171" viewBox="0 0 172 171" fill="none"><g fill="none"><path d="M172 85.5039C172 38.2836 133.496 0.00393097 86 0.00393303C38.5035 0.00393509 -5.83532e-06 38.2836 -3.75918e-06 85.5039C-1.68304e-06 132.724 38.5035 171.004 86 171.004C133.496 171.004 172 132.724 172 85.5039Z" fill="#1C75BC"></path><path d="M133.025 51.5859H52.0162L46.8026 68.5414H119.633L109.204 102.452H36.3737L31.1602 119.408H110.637C115.739 119.408 120.707 117.78 124.809 114.762C128.911 111.744 131.93 107.497 133.421 102.646L144.416 66.8912C146.758 59.2796 141.031 51.5859 133.025 51.5859Z" fill="#FFFFFF"></path><path d="M76.8813 77.0234H32.2829L29.677 85.502L27.0693 93.9806H71.6522L76.8813 77.0234Z" fill="#FFFFFF"></path></g><defs><clipPath id="clip0"><path d="M0 0H172V171H0V0Z" fill="white"></path></clipPath></defs></svg>