<svg xmlns:xlink="http://www.w3.org/1999/xlink" xmlns="http://www.w3.org/2000/svg" width="60" height="60" viewBox="0 0 60 60" fill="none"><path d="M30 60C46.5685 60 60 46.5685 60 30C60 13.4315 46.5685 0 30 0C13.4315 0 0 13.4315 0 30C0 46.5685 13.4315 60 30 60Z" fill="#26A17B"></path><path d="M33.1833 32.7492C32.9903 32.7492 31.881 32.8457 29.5177 32.8457C27.5884 32.8457 26.2862 32.7974 25.8038 32.7492C18.4727 32.4116 13.0225 31.1575 13.0225 29.6141C13.0225 28.0707 18.4727 26.8167 25.8038 26.4791V31.4952C26.2862 31.5434 27.6366 31.5916 29.5659 31.5916C31.8328 31.5916 32.9903 31.4952 33.1833 31.4952V26.5273C40.5145 26.8649 45.9646 28.119 45.9646 29.6624C45.9646 31.2058 40.4662 32.4598 33.1833 32.7492ZM33.1833 25.9968V21.5595H43.4083V14.7588H15.627V21.5595H25.8038V25.9968C17.508 26.3826 11.2862 28.0225 11.2862 30C11.2862 31.9775 17.508 33.6174 25.8038 34.0032V48.2797H33.1833V34.0032C41.4791 33.6174 47.701 31.9775 47.701 30C47.701 28.0225 41.4791 26.3826 33.1833 25.9968Z" fill="#FFFFFF"></path></svg>