<svg xmlns:xlink="http://www.w3.org/1999/xlink" xmlns="http://www.w3.org/2000/svg" viewBox="0 0 67 20" fill="none"><path d="M28.8183 19.8783H23.4322L26.8024 0.353443H32.1886L28.8183 19.8783ZM48.3487 0.831313C46.7986 0.273413 45.1636 -0.00786075 43.5174 0.000167108C38.1971 0.000167108 34.4506 2.6592 34.4255 6.46008C34.3832 9.26421 37.1092 10.8208 39.1486 11.7561C41.2335 12.7118 41.942 13.3363 41.942 14.188C41.9201 15.4954 40.2569 16.0979 38.7065 16.0979C36.5558 16.0979 35.4021 15.7872 33.6511 15.0601L32.9426 14.7479L32.1886 19.1307C33.4521 19.6701 35.7783 20.148 38.1971 20.17C43.8497 20.17 47.5288 17.552 47.5727 13.5019C47.5947 11.2782 46.1541 9.5749 43.0503 8.18388C41.1661 7.29122 40.0123 6.68876 40.0123 5.77403C40.0343 4.94446 40.9889 4.09281 43.1161 4.09281C44.4913 4.05382 45.859 4.30861 47.1291 4.84037L47.615 5.04697L48.3487 0.831313ZM55.5093 12.9626L57.66 7.4994C57.6381 7.54041 58.1021 6.35599 58.3685 5.63051L58.7448 7.31173C58.7448 7.31173 59.7653 11.9863 59.9863 12.9626H55.5093ZM62.1589 0.353443H57.9939C56.7085 0.353443 55.7319 0.70672 55.177 1.97473L47.1761 19.8783H52.8288L53.959 16.9495H60.8767C61.0303 17.6356 61.5194 19.8783 61.5194 19.8783H66.5074L62.1605 0.353443H62.1589ZM18.9317 0.353443L13.6552 13.6675L13.0799 10.9675C12.1033 7.85268 9.04502 4.46659 5.63086 2.7838L10.4637 19.8578H16.1602L24.6282 0.353443H18.9317Z" fill="#00579F"></path><path d="M8.75644 0.353516H0.0877837L0 0.747797C6.76092 2.36908 11.2395 6.27405 13.0798 10.9676L11.1956 1.99688C10.8852 0.750951 9.93054 0.397675 8.75644 0.35667V0.353516Z" fill="#FAA61A"></path></svg>