<svg xmlns:xlink="http://www.w3.org/1999/xlink" xmlns="http://www.w3.org/2000/svg" width="14" height="14" viewBox="0 0 14 14" fill="none"><path d="M7 0C3.13401 0 0 3.13401 0 7C0 10.866 3.13401 14 7 14C10.866 14 14 10.866 14 7C14 3.13401 10.866 0 7 0ZM6.90925 11.6377L4.14293 7.72457L6.90925 9.3442V11.6377ZM6.90925 8.77068L4.12421 7.1393L6.90925 5.91936V8.77068ZM6.90925 5.72334L4.21391 6.90388L6.90925 2.37534V5.72334ZM7.08877 2.37398L9.82198 6.92068L7.08877 5.72334V2.37398ZM7.08877 11.6377V9.3442L9.85509 7.72457L7.08877 11.6377ZM7.08877 8.77074V5.91942L9.87585 7.14023L7.08877 8.77074Z" fill="black"></path></svg>