<svg xmlns:xlink="http://www.w3.org/1999/xlink" xmlns="http://www.w3.org/2000/svg" role="img" width="84" height="85" viewBox="0 0 84 85" fill="none"><title lang="en">global investment opportunities</title><path d="M58.1616 67.9302C57.8225 67.3457 57.0735 67.1466 56.4882 67.4857L56.4411 67.5129C55.8563 67.8522 55.6573 68.6014 55.9965 69.1863C56.2236 69.5778 56.6344 69.7964 57.0566 69.7964C57.265 69.7964 57.4766 69.7429 57.6699 69.6308L57.717 69.6036C58.3018 69.2643 58.5008 68.5151 58.1616 67.9302Z" fill="#D12129"></path><path d="M69.1843 26.7974C64.999 19.5483 58.2413 14.363 50.156 12.1965C42.071 10.03 33.626 11.1419 26.3768 15.3271C19.1278 19.5123 13.9424 26.2701 11.7761 34.3552C9.6097 42.4404 10.7215 50.8855 14.9066 58.1346C18.6608 64.6371 24.6276 69.5789 31.7079 72.0495C35.0642 73.2206 38.5678 73.805 42.0661 73.805C45.8697 73.805 49.6665 73.1137 53.2554 71.7344C53.8866 71.4918 54.2015 70.7835 53.9588 70.1523C53.7161 69.5211 53.0077 69.2058 52.3768 69.4489C42.8239 73.1205 32.4822 71.4523 24.7558 65.6527L25.8528 59.9267L26.3814 59.7551C28.3787 59.1061 29.4758 56.9531 28.8271 54.9556L28.4392 53.7619C28.3495 53.4857 28.35 53.1937 28.4404 52.9177C28.7807 51.8804 28.6591 50.7455 28.1068 49.8037C27.5545 48.862 26.6233 48.2016 25.5518 47.9921L22.7883 47.4522L17.4562 43.3981C17.1368 43.1552 16.7186 43.0843 16.3369 43.2082L13.2151 44.2223C13.1489 43.1057 13.1479 41.9896 13.2108 40.8793C13.334 40.994 13.4142 41.072 13.4635 41.1232C13.5246 41.2249 13.6003 41.3182 13.689 41.399C13.9439 41.6312 14.1748 41.7365 14.6597 41.7365C15.1052 41.7364 15.7648 41.6476 16.8539 41.4867C17.8869 41.334 18.9144 41.162 18.9246 41.1603C19.3363 41.0913 19.6844 40.8171 19.8482 40.4332C20.0121 40.0492 19.9689 39.6083 19.7336 39.2633L18.2324 37.0613L20.3827 35.5237C20.526 35.4212 20.6455 35.2891 20.733 35.1363L24.0662 29.3173L25.4098 27.8776C26.7827 26.4061 27.1745 24.2532 26.4078 22.3926C25.9555 21.2951 25.1655 20.3815 24.1774 19.7657C25.2475 18.9244 26.3886 18.1477 27.6012 17.4477C32.0505 14.8788 36.906 13.634 41.7105 13.5864L39.5242 16.3289L31.4168 19.1711C31.0875 19.2865 30.823 19.537 30.6901 19.8595L28.4259 25.3483C28.2651 25.7383 28.3162 26.1832 28.5612 26.5266L31.8681 31.1588C31.3945 31.5909 30.9335 32.2202 30.3829 33.0016C30.1414 33.3444 29.9134 33.668 29.7558 33.8494C29.6188 34.0074 29.4817 34.1616 29.3458 34.3145C28.6345 35.1146 27.8991 35.9422 27.3767 37.0476C26.2279 39.4792 26.46 42.3053 27.9821 44.4233C29.454 46.4712 31.8806 47.5122 34.4704 47.2075C34.8924 47.1581 35.2858 47.0607 35.6664 46.9664C36.7161 46.7067 37.0487 46.6808 37.3854 46.9959C37.5492 47.1494 37.5643 47.1784 37.561 47.6986C37.5587 48.0297 37.5561 48.4416 37.6702 48.9119C37.853 49.6643 38.3255 50.1843 38.7051 50.6021C38.8938 50.8096 39.0889 51.0244 39.149 51.1685C39.5309 52.0836 39.3647 52.5904 39.0003 53.701C38.9691 53.796 38.9372 53.8929 38.9053 53.9924C38.3517 55.7059 39.1233 57.4057 39.8041 58.9051C40.0252 59.392 40.234 59.8517 40.3708 60.2579C41.4716 63.5246 42.2969 64.2727 42.9592 64.5739C43.3061 64.7316 43.6651 64.8008 44.0277 64.8006C45.7927 64.8005 47.6345 63.1618 48.4805 62.1228C49.0119 61.4705 49.1428 60.8173 49.2383 60.3401C49.286 60.1028 49.3234 59.9155 49.3949 59.793C49.5044 59.6057 49.6333 59.4605 49.7966 59.2766C50.1248 58.9069 50.5334 58.447 50.798 57.6133C50.999 56.9801 51.1451 56.8248 51.6289 56.3096C51.7131 56.2201 51.8029 56.1243 51.8992 56.0195C53.53 54.245 53.1101 52.8894 52.6652 51.4542C52.2909 50.2465 52.9456 49.4742 54.5285 48.0001C55.2147 47.3611 55.9241 46.7004 56.4725 45.9065C56.7125 45.559 57.4426 44.5019 56.9908 43.4542C56.548 42.4269 55.4224 42.2543 54.518 42.1157C54.1608 42.0608 53.6211 41.9781 53.4493 41.8658C52.6918 41.3705 52.2284 40.3369 51.7801 39.3371C51.6908 39.1382 51.6028 38.9418 51.5135 38.7511C51.3544 38.411 51.1953 37.9994 51.027 37.5638C50.5815 36.4109 50.0767 35.1041 49.2173 34.1931C48.4448 33.3746 46.9886 32.9803 45.7038 32.6324C45.2717 32.5154 44.8639 32.405 44.5949 32.3057C44.3695 32.2224 44.1248 32.2074 43.8914 32.2622C43.2661 32.4088 42.876 32.5703 42.5863 32.8024C42.5098 32.8638 42.2832 33.0652 42.1505 33.3889C41.7022 33.1738 41.0858 32.763 40.7065 32.5102C40.6987 32.5049 40.6907 32.4996 40.6829 32.4944C40.8107 31.9828 40.695 31.5723 40.5738 31.3159C39.8898 29.8691 37.6194 29.9824 37.1715 30.0204C36.9171 30.0417 36.5952 30.0531 36.2547 30.0651C35.7198 30.0841 35.1287 30.1054 34.5438 30.171L34.5739 30.087C35.0179 28.85 36.1992 28.0189 37.5135 28.0189H38.2096C38.8856 28.0189 39.4338 27.4706 39.4338 26.7946C39.4338 26.1186 38.8856 25.5703 38.2096 25.5703H37.5135C35.5623 25.5703 33.7755 26.5972 32.774 28.2136L30.9478 25.6554L32.7445 21.3003L40.6668 18.5228C40.884 18.4467 41.0755 18.3108 41.2192 18.1306L44.7409 13.7131C53.7397 14.5691 62.2101 19.6144 67.064 28.0215C68.3568 30.2608 69.3132 32.6183 69.949 35.0295L69.43 35.4923C68.7525 36.0968 68.3556 36.9638 68.3404 37.8713C68.3403 37.8812 68.34 37.891 68.3397 37.9008L67.4941 35.5754C67.3681 35.2284 67.1825 34.9101 66.9427 34.6296L65.4344 32.8636C64.8496 32.1791 63.9982 31.7867 63.0981 31.7867H61.2518C60.5964 31.7867 59.9974 32.1457 59.6882 32.7232C59.3791 33.3009 59.4128 33.9986 59.7764 34.5437L59.9632 34.8242C58.7702 35.8501 57.3902 36.6711 55.9209 37.2248L53.3901 32.3769V31.2954C53.3901 30.9609 53.2532 30.6407 53.0111 30.4099L50.7321 28.2343C50.6064 28.1143 50.4565 28.0224 50.2926 27.9648L48.2411 27.2438C47.6028 27.0193 46.9041 27.3551 46.68 27.9929C46.4559 28.631 46.7912 29.3297 47.4291 29.5539L49.232 30.1876L50.9415 31.8193V32.6774C50.9415 32.8747 50.9893 33.0691 51.0806 33.2441L54.249 39.3131C54.5339 39.8592 55.1807 40.1087 55.7579 39.8952L56.6804 39.5551C58.8238 38.7646 60.8104 37.493 62.4256 35.878C62.8383 35.4653 62.9024 34.8189 62.5786 34.3332L62.5134 34.2354H63.0981C63.2809 34.2354 63.4539 34.3151 63.5727 34.4542L65.081 36.2201C65.1296 36.2771 65.1672 36.3415 65.1929 36.4121L66.8575 40.9893C67.0005 41.3826 67.3346 41.6755 67.7428 41.7661C67.8309 41.7856 67.9197 41.7951 68.008 41.7951C68.3291 41.7951 68.6417 41.6686 68.8736 41.4365L69.666 40.6442C70.1677 40.1423 70.5131 39.5073 70.6782 38.8034C71.9036 48.6238 68.0529 58.7825 59.9138 65.1708C59.3817 65.5882 59.2889 66.3577 59.7066 66.8897C60.124 67.4217 60.8934 67.5146 61.4255 67.0969C67.3017 62.4849 71.3386 55.8884 72.7926 48.5224C74.2602 41.0855 72.9789 33.3698 69.1843 26.7974ZM16.484 45.7351L21.5327 49.5737C21.6819 49.6872 21.8551 49.7648 22.039 49.8007L25.0819 50.3953C25.4703 50.4712 25.7942 50.7009 25.9944 51.0423C26.1946 51.3835 26.2367 51.7784 26.1136 52.1544C25.8601 52.9274 25.8589 53.7449 26.1103 54.5184L26.4982 55.7119C26.7299 56.4253 26.3379 57.1943 25.6247 57.4261L24.408 57.8215C23.9835 57.9594 23.6678 58.3174 23.5839 58.7555L22.6046 63.8673C20.4518 61.8968 18.5615 59.568 17.0272 56.9104C15.1553 53.6685 13.9858 50.2106 13.4703 46.7142L16.484 45.7351ZM23.6196 26.207L22.1793 27.7501C22.115 27.8191 22.0588 27.8952 22.0119 27.977L18.7413 33.6872L15.8344 35.7658C15.2929 36.1529 15.16 36.9014 15.5349 37.4514L16.622 39.0461C15.9954 39.1394 15.433 39.2163 15.0591 39.257C14.9872 39.1881 14.912 39.1182 14.8343 39.046C14.5432 38.7756 14.1388 38.4145 13.5359 37.8869C14.5303 31.7327 17.4958 25.9348 22.1598 21.5092C23.0529 21.7904 23.7858 22.4566 24.1439 23.3256C24.5467 24.3029 24.3407 25.434 23.6196 26.207ZM33.6022 32.8976C34.1483 32.5902 35.4158 32.5453 36.3412 32.5125C36.7121 32.4994 37.0625 32.4869 37.3755 32.4607C37.5407 32.4469 37.7241 32.4494 37.8971 32.4629C37.8198 32.6612 37.7947 32.879 37.8283 33.0949C37.8872 33.4749 38.1214 33.8049 38.4603 33.9862C38.69 34.1091 39.0097 34.3223 39.3481 34.5479C40.305 35.1859 41.3897 35.9089 42.4087 35.9738C43.3353 36.0339 43.8509 35.5058 44.0718 35.2809C44.0894 35.263 44.1061 35.2451 44.1237 35.2288C44.2481 35.1275 44.3647 34.9916 44.4514 34.8276C44.6472 34.8836 44.8529 34.9393 45.0637 34.9965C45.7887 35.1927 47.1381 35.5581 47.4362 35.874C47.9658 36.4354 48.3786 37.5039 48.7428 38.4466C48.9268 38.923 49.1007 39.3726 49.2958 39.7895C49.3795 39.9684 49.4619 40.1527 49.5457 40.3393C50.1106 41.5995 50.751 43.0279 52.1095 43.9158C52.7255 44.3185 53.4806 44.4342 54.1469 44.5365C54.2275 44.5488 54.3198 44.563 54.4136 44.5785C54.0181 45.1302 53.455 45.6545 52.86 46.2085C51.3443 47.62 49.458 49.3768 50.3267 52.1794C50.7368 53.5027 50.7559 53.6457 50.0965 54.363C50.0067 54.4608 49.9229 54.55 49.8444 54.6335C49.2797 55.2347 48.8337 55.7095 48.4644 56.8727C48.3571 57.2105 48.2182 57.367 47.9658 57.651C47.764 57.8783 47.5126 58.1614 47.2809 58.5581C47.0032 59.0334 46.9113 59.4911 46.8378 59.8588C46.7651 60.2206 46.724 60.4022 46.582 60.5765C46.2586 60.9735 45.6555 61.5499 45.0363 61.9433C44.4608 62.3087 44.1248 62.3587 44.0103 62.3518C43.8797 62.2117 43.4065 61.5984 42.6914 59.4762C42.5151 58.9526 42.2704 58.4138 42.0339 57.8929C41.5124 56.7444 40.9733 55.5567 41.2356 54.745C41.2665 54.6493 41.2972 54.5557 41.3273 54.4643C41.7463 53.1872 42.1418 51.9813 41.4091 50.2255C41.186 49.6908 40.8308 49.3 40.5177 48.9553C40.3151 48.7323 40.0855 48.4796 40.0501 48.3341C40.007 48.1567 40.0083 47.9519 40.0099 47.7147C40.0141 47.0749 40.0205 46.1082 39.0594 45.2083C37.7045 43.9401 36.1245 44.3308 35.0788 44.5894C34.7577 44.6687 34.4543 44.7439 34.1854 44.7755C32.4653 44.977 30.9297 44.3281 29.971 42.994C28.968 41.5985 28.8225 39.7206 29.5912 38.0934C29.9633 37.3059 30.5254 36.6733 31.1763 35.9411C31.3184 35.7811 31.4619 35.6197 31.6054 35.4544C31.8442 35.1791 32.107 34.8064 32.3848 34.4118C32.7165 33.941 33.3341 33.0643 33.6022 32.8976Z" fill="#D12129"></path><path d="M60.8992 53.2691L60.3101 51.0487C60.1814 50.5638 59.77 50.2066 59.2721 50.1471C58.7735 50.0888 58.29 50.3381 58.0506 50.779C57.9164 51.0263 57.7955 51.2883 57.6787 51.5417C57.4822 51.9679 57.279 52.4087 57.0675 52.652C56.9487 52.7886 56.6436 52.9359 56.3488 53.0782C55.6439 53.4183 54.6784 53.8842 54.3096 55.0599C54.0807 55.7891 54.1661 56.3661 54.2286 56.7873C54.2826 57.1525 54.2951 57.2791 54.1972 57.5088L54.185 57.5374C53.7953 58.4519 53.0702 60.1544 54.0869 61.6018C54.8124 62.6347 55.5752 62.9003 56.1679 62.9003C56.2836 62.9006 56.3931 62.8905 56.4944 62.874C57.7433 62.6698 58.6821 61.3707 59.4494 58.7853L60.8895 53.9316C60.9536 53.7157 60.957 53.4865 60.8992 53.2691ZM57.102 58.0887C56.711 59.4069 56.3649 60.0223 56.1652 60.2951C56.1422 60.2657 56.1172 60.2324 56.0905 60.1943C55.8566 59.861 56.2063 59.0402 56.4377 58.4969L56.45 58.4683C56.8232 57.5923 56.7234 56.9196 56.6508 56.4284C56.6042 56.1139 56.5875 55.9787 56.6459 55.7929C56.6939 55.6403 56.9808 55.4921 57.413 55.2835C57.6047 55.1909 57.8156 55.0891 58.0286 54.966L57.102 58.0887Z" fill="#D12129"></path><path d="M43.7584 25.6684L43.6758 25.6395C43.0382 25.4161 42.3391 25.7515 42.1152 26.3895C41.8914 27.0277 42.2273 27.7262 42.8653 27.9501L42.9478 27.979C43.0819 28.026 43.2186 28.0483 43.3531 28.0483C43.8586 28.0483 44.3317 27.7327 44.5085 27.2289C44.7323 26.5907 44.3964 25.8921 43.7584 25.6684Z" fill="#D12129"></path></svg>