<svg xmlns:xlink="http://www.w3.org/1999/xlink" xmlns="http://www.w3.org/2000/svg" role="img" width="76" height="76" viewBox="0 0 76 76" fill="none"><title lang="en">instant acccess to investment opportunities</title><path d="M68.5713 39.6105C68.0165 34.0299 65.5233 28.7687 61.5508 24.7961C58.156 21.4014 54.0007 19.2198 49.6285 18.2498V15.1833C51.4143 14.739 52.7417 13.1225 52.7417 11.2012C52.7417 8.93847 50.9009 7.09766 48.6381 7.09766H39.9482C37.6854 7.09766 35.8446 8.93847 35.8446 11.2012C35.8446 13.1224 37.172 14.7389 38.9577 15.1833V18.2584C34.5988 19.2325 30.4574 21.411 27.0722 24.7962C26.3313 25.537 25.6482 26.3142 25.0229 27.1219C24.9926 27.1196 24.9623 27.1173 24.9314 27.1173H16.3307C15.6642 27.1173 15.1238 27.6576 15.1238 28.3242C15.1238 28.9908 15.6642 29.5311 16.3307 29.5311H23.3806C22.4957 31.0126 21.7822 32.5685 21.2391 34.1701H8.10342C7.43695 34.1701 6.89648 34.7104 6.89648 35.377C6.89648 36.0436 7.43695 36.584 8.10342 36.584H20.557C20.2092 38.1109 20.0096 39.6648 19.958 41.223H14.6208C13.9544 41.223 13.4139 41.7634 13.4139 42.43C13.4139 43.0966 13.9544 43.6369 14.6208 43.6369H19.9965C20.0984 45.1992 20.3495 46.7532 20.7501 48.276H12.9311C12.2647 48.276 11.7242 48.8163 11.7242 49.4829C11.7242 50.1495 12.2647 50.6899 12.9311 50.6899H21.5204C22.7044 53.822 24.5547 56.7576 27.0722 59.275C31.0485 63.2514 36.3151 65.7451 41.9015 66.2971C42.6988 66.3757 43.4967 66.4147 44.2935 66.4147C49.0032 66.4147 53.653 65.0517 57.5985 62.4824C58.157 62.1187 58.315 61.371 57.9513 60.8124C57.5875 60.2538 56.8398 60.0958 56.2812 60.4596C47.6448 66.0835 36.0784 64.8676 28.779 57.5682C20.2144 49.0035 20.2144 35.0679 28.779 26.5032C37.3435 17.9387 51.2791 17.9387 59.8439 26.5032C67.1336 33.7931 68.3562 45.3495 62.7509 53.9818C62.3878 54.5408 62.5468 55.2884 63.1057 55.6513C63.665 56.0144 64.4123 55.8554 64.7753 55.2964C67.7701 50.6841 69.1183 45.1135 68.5713 39.6105ZM38.2585 11.2013C38.2585 10.2696 39.0164 9.51164 39.9482 9.51164H48.6381C49.5698 9.51164 50.3278 10.2696 50.3278 11.2013C50.3278 12.1331 49.5698 12.891 48.6381 12.891H48.4216H40.1646H39.9482C39.0164 12.891 38.2585 12.133 38.2585 11.2013ZM41.3715 17.8435V15.3049H47.2146V17.8391C45.2744 17.6083 43.3114 17.6098 41.3715 17.8435Z" fill="#D12129"></path><path d="M60.6969 57.2148C60.3783 57.2148 60.0681 57.344 59.8437 57.5685C59.618 57.793 59.49 58.1043 59.49 58.4218C59.49 58.7392 59.618 59.0506 59.8437 59.275C60.0681 59.5007 60.3784 59.6287 60.6969 59.6287C61.0143 59.6287 61.3245 59.5007 61.5502 59.275C61.7747 59.0506 61.9038 58.7392 61.9038 58.4218C61.9038 58.1043 61.7748 57.793 61.5502 57.5685C61.3245 57.344 61.0142 57.2148 60.6969 57.2148Z" fill="#D12129"></path><path d="M44.3107 23.3125C33.9868 23.3125 25.5876 31.7115 25.5876 42.0355C25.5876 52.3595 33.9868 60.7585 44.3107 60.7585C54.6345 60.7585 63.0337 52.3595 63.0337 42.0355C63.0337 31.7115 54.6345 23.3125 44.3107 23.3125ZM44.3107 58.3447C35.3177 58.3447 28.0015 51.0284 28.0015 42.0355C28.0015 33.0427 35.3177 25.7264 44.3107 25.7264C53.3036 25.7264 60.6198 33.0427 60.6198 42.0355C60.6198 51.0284 53.3036 58.3447 44.3107 58.3447Z" fill="#D12129"></path><path d="M51.945 32.6933L45.9671 38.6711C45.4672 38.424 44.9049 38.2843 44.3105 38.2843C43.7159 38.2843 43.1537 38.424 42.6538 38.6711L39.9784 35.9957C39.507 35.5244 38.743 35.5244 38.2714 35.9957C37.8001 36.467 37.8001 37.2313 38.2714 37.7026L40.9469 40.378C40.6996 40.8779 40.56 41.4402 40.56 42.0346C40.56 44.1026 42.2424 45.785 44.3105 45.785C46.3785 45.785 48.0609 44.1026 48.0609 42.0346C48.0609 41.4402 47.9212 40.8779 47.674 40.378L53.4765 34.5755L53.6519 34.4002C54.1232 33.9289 54.1232 33.1646 53.6519 32.6933C53.1805 32.222 52.4166 32.222 51.945 32.6933ZM44.3105 43.3713C43.5735 43.3713 42.9739 42.7717 42.9739 42.0347C42.9739 41.2978 43.5735 40.6982 44.3105 40.6982C45.0474 40.6982 45.647 41.2978 45.647 42.0347C45.647 42.7717 45.0474 43.3713 44.3105 43.3713Z" fill="#D12129"></path><path d="M57.2145 40.8438H56.0963C55.4299 40.8438 54.8894 41.3841 54.8894 42.0507C54.8894 42.7172 55.4299 43.2576 56.0963 43.2576H57.2145C57.881 43.2576 58.4214 42.7172 58.4214 42.0507C58.4214 41.3841 57.881 40.8438 57.2145 40.8438Z" fill="#D12129"></path><path d="M32.524 40.8145H31.4059C30.7394 40.8145 30.199 41.3548 30.199 42.0214C30.199 42.688 30.7394 43.2283 31.4059 43.2283H32.524C33.1904 43.2283 33.7309 42.688 33.7309 42.0214C33.7309 41.3548 33.1904 40.8145 32.524 40.8145Z" fill="#D12129"></path><path d="M44.3251 31.4557C44.9915 31.4557 45.532 30.9154 45.532 30.2488V29.1307C45.532 28.4642 44.9915 27.9238 44.3251 27.9238C43.6586 27.9238 43.1182 28.4642 43.1182 29.1307V30.2488C43.1182 30.9154 43.6586 31.4557 44.3251 31.4557Z" fill="#D12129"></path><path d="M44.2958 52.6152C43.6293 52.6152 43.0889 53.1556 43.0889 53.8221V54.9402C43.0889 55.6068 43.6293 56.1471 44.2958 56.1471C44.9622 56.1471 45.5027 55.6068 45.5027 54.9402V53.8221C45.5027 53.1556 44.9622 52.6152 44.2958 52.6152Z" fill="#D12129"></path><path d="M8.10242 48.2754C7.785 48.2754 7.47362 48.4045 7.24913 48.629C7.02465 48.8535 6.89551 49.1649 6.89551 49.4823C6.89551 49.8009 7.02453 50.1111 7.24913 50.3356C7.47374 50.5601 7.785 50.6892 8.10242 50.6892C8.41984 50.6892 8.73122 50.5601 8.95559 50.3356C9.18007 50.1111 9.30933 49.7997 9.30933 49.4823C9.30933 49.1649 9.18019 48.8535 8.95559 48.629C8.73122 48.4045 8.41984 48.2754 8.10242 48.2754Z" fill="#D12129"></path></svg>