<svg xmlns:xlink="http://www.w3.org/1999/xlink" xmlns="http://www.w3.org/2000/svg" role="img" width="84" height="85" viewBox="0 0 84 85" fill="none"><title lang="en">accessible mutual funds</title><path d="M15.178 69.084H17.3142V71.2202H15.178V69.084Z" fill="#D12129"></path><path d="M19.4504 69.084H21.5866V71.2202H19.4504V69.084Z" fill="#D12129"></path><path d="M23.7229 69.084H25.8591V71.2202H23.7229V69.084Z" fill="#D12129"></path><path d="M60.0378 69.084H68.5826V71.2202H60.0378V69.084Z" fill="#D12129"></path><path d="M72.8553 64.8107V29.5634C72.8553 26.6189 70.4594 24.2229 67.5148 24.2229H64.3105C64.3105 15.977 57.603 9.26953 49.3571 9.26953C41.1111 9.26953 34.4037 15.977 34.4037 24.2229H16.246C13.3014 24.2229 10.9055 26.6189 10.9055 29.5634V64.8107H8.76929V70.1512C8.76929 73.0958 11.1652 75.4917 14.1098 75.4917H69.651C72.5956 75.4917 74.9915 73.0958 74.9915 70.1512V64.8107H72.8553ZM67.5148 26.3591C69.2812 26.3591 70.7191 27.797 70.7191 29.5634V64.8107H68.5829V30.6315C68.5829 29.4534 67.6248 28.4953 66.4467 28.4953H63.6805C63.8865 27.8033 64.0351 27.0888 64.1394 26.3591H67.5148ZM37.1605 20.2979L48.4971 25.0219L52.3788 36.6651C51.4078 36.9014 50.3996 37.0401 49.3571 37.0401C42.2893 37.0401 36.5399 31.2907 36.5399 24.2229C36.5399 22.8534 36.761 21.5355 37.1605 20.2979ZM54.4081 35.9986L50.579 24.5113L59.1343 15.9556C61.0269 18.1893 62.1743 21.0729 62.1743 24.2229C62.1743 29.4972 58.97 34.0345 54.4081 35.9986ZM49.3571 11.4057C52.5071 11.4057 55.3907 12.5531 57.6255 14.4447L49.1083 22.9613L37.9882 18.3291C40.1254 14.2215 44.415 11.4057 49.3571 11.4057ZM13.0417 29.5634C13.0417 27.797 14.4796 26.3591 16.246 26.3591H34.5747C34.6791 27.0888 34.8267 27.8033 35.0337 28.4953H17.3141C16.1359 28.4953 15.1779 29.4534 15.1779 30.6315V64.8107H13.0417V29.5634ZM72.8553 70.1512C72.8553 71.9177 71.4174 73.3555 69.651 73.3555H14.1098C12.3434 73.3555 10.9055 71.9177 10.9055 70.1512V66.9469H32.9105C34.4465 68.3279 36.4116 69.0831 38.4935 69.0831H45.2683C47.3502 69.0831 49.3154 68.3279 50.8513 66.9469H64.3105V64.8107H49.9829L49.67 65.1236C48.4939 66.2997 46.9314 66.9469 45.2672 66.9469H38.4925C36.8293 66.9469 35.2658 66.2997 34.0897 65.1236L33.7778 64.8107H17.3141V30.6315H35.8671C38.2735 35.6753 43.4069 39.1763 49.3571 39.1763C55.3073 39.1763 60.4407 35.6753 62.8471 30.6315H66.4467V66.9469H72.8553V70.1512Z" fill="#D12129"></path><path d="M61.1063 54.1293C60.4508 54.1293 59.8406 54.329 59.3321 54.6686L55.6057 51.8747C55.7006 51.5722 55.7658 51.2572 55.7658 50.925C55.7658 49.1586 54.328 47.7207 52.5615 47.7207C50.7951 47.7207 49.3572 49.1586 49.3572 50.925C49.3572 51.2927 49.4318 51.6405 49.546 51.9696L43.564 56.7557C43.0738 56.4501 42.5001 56.2655 41.8805 56.2655C41.1619 56.2655 40.5047 56.5122 39.9696 56.9127L35.364 53.8419C35.4281 53.5911 35.4719 53.3324 35.4719 53.0612C35.4719 51.2948 34.0341 49.8569 32.2676 49.8569C30.5012 49.8569 29.0633 51.2948 29.0633 53.0612C29.0633 53.3324 29.1071 53.5911 29.1713 53.8419L24.5656 56.9127C24.0305 56.5111 23.3734 56.2655 22.6547 56.2655C20.8883 56.2655 19.4504 57.7034 19.4504 59.4698C19.4504 61.2362 20.8883 62.6741 22.6547 62.6741C24.4212 62.6741 25.859 61.2362 25.859 59.4698C25.859 59.1986 25.8152 58.9399 25.7511 58.6891L30.3567 55.6183C30.8918 56.0199 31.549 56.2655 32.2676 56.2655C32.9863 56.2655 33.6434 56.0199 34.1785 55.6183L38.7842 58.6891C38.72 58.9399 38.6762 59.1996 38.6762 59.4698C38.6762 61.2362 40.1141 62.6741 41.8805 62.6741C43.647 62.6741 45.0848 61.2362 45.0848 59.4698C45.0848 59.1021 45.0103 58.7543 44.896 58.4252L50.878 53.6391C51.3683 53.9447 51.942 54.1293 52.5615 54.1293C53.2171 54.1293 53.8273 53.9296 54.3358 53.59L58.0621 56.3839C57.9672 56.6864 57.902 57.0014 57.902 57.3336C57.902 59.1 59.3399 60.5379 61.1063 60.5379C62.8728 60.5379 64.3106 59.1 64.3106 57.3336C64.3106 55.5672 62.8728 54.1293 61.1063 54.1293ZM22.6547 60.5379C22.0664 60.5379 21.5866 60.0581 21.5866 59.4698C21.5866 58.8815 22.0664 58.4017 22.6547 58.4017C23.243 58.4017 23.7228 58.8815 23.7228 59.4698C23.7228 60.0581 23.243 60.5379 22.6547 60.5379ZM32.2676 54.1293C31.6793 54.1293 31.1995 53.6495 31.1995 53.0612C31.1995 52.4729 31.6793 51.9931 32.2676 51.9931C32.8559 51.9931 33.3357 52.4729 33.3357 53.0612C33.3357 53.6495 32.8559 54.1293 32.2676 54.1293ZM41.8805 60.5379C41.2922 60.5379 40.8124 60.0581 40.8124 59.4698C40.8124 58.8815 41.2922 58.4017 41.8805 58.4017C42.4688 58.4017 42.9486 58.8815 42.9486 59.4698C42.9486 60.0581 42.4688 60.5379 41.8805 60.5379ZM52.5615 51.9931C51.9732 51.9931 51.4934 51.5133 51.4934 50.925C51.4934 50.3367 51.9732 49.8569 52.5615 49.8569C53.1498 49.8569 53.6296 50.3367 53.6296 50.925C53.6296 51.5133 53.1498 51.9931 52.5615 51.9931ZM61.1063 58.4017C60.518 58.4017 60.0382 57.9219 60.0382 57.3336C60.0382 56.7453 60.518 56.2655 61.1063 56.2655C61.6946 56.2655 62.1744 56.7453 62.1744 57.3336C62.1744 57.9219 61.6946 58.4017 61.1063 58.4017Z" fill="#D12129"></path><path d="M36.54 32.7676H19.4504V47.721H36.54V32.7676ZM34.4038 45.5848H21.5866V34.9038H34.4038V45.5848Z" fill="#D12129"></path><path d="M23.7229 37.041H32.2677V39.1772H23.7229V37.041Z" fill="#D12129"></path><path d="M23.7229 41.3125H32.2677V43.4487H23.7229V41.3125Z" fill="#D12129"></path><path d="M38.6763 43.4492H40.8125V45.5854H38.6763V43.4492Z" fill="#D12129"></path><path d="M42.9482 43.4492H64.3102V45.5854H42.9482V43.4492Z" fill="#D12129"></path></svg>