<svg xmlns:xlink="http://www.w3.org/1999/xlink" xmlns="http://www.w3.org/2000/svg" role="img" width="84" height="85" viewBox="0 0 84 85" fill="none"><title lang="en">trusted investment company</title><path d="M45.1288 31.9057C38.4252 24.5317 27.1409 24.0849 19.8787 30.6766C19.5438 31.0121 19.097 31.347 18.7615 31.7938L18.3147 32.5761L18.8733 33.2466L18.9852 33.3579C25.5768 40.62 36.8612 41.0674 44.1233 34.4751C44.4583 34.1402 44.9051 33.8052 45.2406 33.3579L45.7992 32.5761L45.1288 31.9057ZM29.7109 32.5761C29.7109 31.347 30.7163 30.3416 31.9454 30.3416C33.1739 30.3416 34.1799 31.347 34.1799 32.5761C34.1799 33.8052 33.1739 34.8106 31.9454 34.8106C30.7163 34.8106 29.7109 33.8052 29.7109 32.5761ZM30.4926 28.3302C28.1463 29.1125 26.9178 31.5707 27.5877 33.9165C28.035 35.2574 29.0404 36.3747 30.4926 36.8215C27.029 36.4865 23.6773 35.0338 21.1078 32.5761C23.7891 30.118 27.029 28.6657 30.4926 28.3302ZM33.3976 36.8215C35.7439 36.0397 36.973 33.5815 36.3026 31.2352C35.8558 29.8948 34.8498 28.7776 33.3976 28.3302C36.8612 28.6657 40.213 30.118 42.7824 32.5761C40.1011 35.0338 36.8612 36.4865 33.3976 36.8215Z" fill="#D12129"></path><path d="M31.9454 13.582C21.4428 13.582 12.9521 22.0733 12.9521 32.5753C12.9521 43.0774 21.4428 51.5686 31.9454 51.5686C42.4475 51.5686 50.9387 43.0774 50.9387 32.5753C50.9387 22.0733 42.4475 13.582 31.9454 13.582ZM31.9454 49.3341C22.6719 49.3341 15.1867 41.8483 15.1867 32.5753C15.1867 23.3018 22.6719 15.8165 31.9454 15.8165C41.2184 15.8165 48.7042 23.3018 48.7042 32.5753C48.7042 41.8483 41.2184 49.3341 31.9454 49.3341Z" fill="#D12129"></path><path d="M69.9319 57.1568V20.2874C69.9319 17.1588 67.4738 14.7012 64.3457 14.7012H52.0559V16.9357H64.3457C66.2447 16.9357 67.6974 18.3879 67.6974 20.2874V57.1568H69.9319Z" fill="#D12129"></path><path d="M14.0693 53.8047V64.9772C14.0693 68.1053 16.527 70.5635 19.6556 70.5635H58.7594V68.329H19.6556C17.756 68.329 16.3038 66.8762 16.3038 64.9772V53.8047H14.0693Z" fill="#D12129"></path><path d="M55.4077 20.2871H65.463V22.5216H55.4077V20.2871Z" fill="#D12129"></path><path d="M57.6416 25.873H65.4624V28.1075H57.6416V25.873Z" fill="#D12129"></path><path d="M57.6416 31.459H65.4624V33.6935H57.6416V31.459Z" fill="#D12129"></path><path d="M57.6416 37.0449H65.4624V39.2794H57.6416V37.0449Z" fill="#D12129"></path><path d="M57.6416 42.6328H65.4624V44.8673H57.6416V42.6328Z" fill="#D12129"></path><path d="M58.7593 48.2188H65.4628V50.4533H58.7593V48.2188Z" fill="#D12129"></path><path d="M18.5381 58.2734H48.7039V60.5079H18.5381V58.2734Z" fill="#D12129"></path><path d="M18.5381 62.7422H53.1729V64.9767H18.5381V62.7422Z" fill="#D12129"></path><path d="M24.1245 41.5137H39.766V43.7482H24.1245V41.5137Z" fill="#D12129"></path><path d="M24.1245 21.4043H39.766V23.6388H24.1245V21.4043Z" fill="#D12129"></path><path d="M62.4459 55.9269C61.7755 55.2564 60.9937 54.9215 60.0996 54.9215H59.3178L51.2734 45.8716C58.6474 35.1459 56.0774 20.5098 45.3522 13.0245C34.6265 5.53872 19.8785 8.33185 12.5046 18.9457C5.13113 29.5596 7.70059 44.3076 18.4263 51.7928C26.9175 57.7146 38.3132 57.3791 46.4695 50.8993L54.2902 59.7254V60.6196C54.2902 61.5132 54.6252 62.4067 55.2956 62.9654L66.9149 74.5852C68.9258 76.5961 72.0544 76.5961 74.0652 74.5852C76.0766 72.5738 76.0766 69.4458 74.0652 67.4344L62.4459 55.9269ZM10.7174 32.5764C10.7174 20.8453 20.214 11.3487 31.9452 11.3487C43.6763 11.3487 53.173 20.8453 53.173 32.5764C53.173 44.3076 43.6763 53.8042 31.9452 53.8042C20.214 53.8042 10.7174 44.3076 10.7174 32.5764ZM48.1453 49.5583C48.704 48.9997 49.3739 48.3298 49.8212 47.7712L57.1946 56.0387L55.4075 57.7146L48.1453 49.5583ZM70.4904 73.9148C69.7081 73.9148 69.0376 73.5793 68.479 73.1325L56.8597 61.5132C56.636 61.2895 56.5247 61.0664 56.5247 60.7309V59.8373L59.206 57.156H60.0996C60.4351 57.156 60.6582 57.2678 60.8819 57.4909L72.5012 69.1103C73.6185 70.2275 73.6185 72.0152 72.5012 73.1325C71.9426 73.5793 71.1603 73.9148 70.4904 73.9148Z" fill="#D12129"></path></svg>