<svg xmlns:xlink="http://www.w3.org/1999/xlink" xmlns="http://www.w3.org/2000/svg" role="img" width="84" height="85" viewBox="0 0 84 85" fill="none"><title lang="en">alternative investing platforms</title>title&gt;
<path d="M22.6155 63.5762H20.4617V65.73H22.6155V63.5762Z" fill="#D12129"></path><path d="M24.7691 40.9609H22.6152V43.1148H24.7691V40.9609Z" fill="#D12129"></path><path d="M35.5386 14.0391H33.3848V16.1929H35.5386V14.0391Z" fill="#D12129"></path><path d="M39.846 14.0391H37.6921V16.1929H39.846V14.0391Z" fill="#D12129"></path><path d="M67.8461 46.9188V42.0382C67.8461 39.9565 66.1586 38.2689 64.0769 38.2689C63.3782 38.2715 62.6944 38.47 62.1029 38.8418C61.256 36.9688 59.0512 36.137 57.1782 36.9839C57.1442 36.9992 57.1104 37.0151 57.0769 37.0315V15.1151C57.0734 12.1428 54.6646 9.73397 51.6923 9.73047H21.5384C18.5661 9.73397 16.1573 12.1428 16.1538 15.1151V68.9612C16.1573 71.9335 18.5661 74.3423 21.5384 74.3458H48.4615V70.0382H63.5384V74.3458H65.6923V70.0382H66.7692C67.3639 70.0382 67.8461 69.556 67.8461 68.9612V60.3458C67.8461 59.7511 67.3639 59.2689 66.7692 59.2689H65.6923V56.288C67.1053 53.3666 67.8415 50.1641 67.8461 46.9188ZM18.3077 15.1151C18.3077 13.3308 19.7541 11.8843 21.5384 11.8843H51.6923C53.4766 11.8843 54.923 13.3308 54.923 15.1151V18.3459H18.3077V15.1151ZM46.3077 72.192H21.5384C19.7541 72.192 18.3077 70.7456 18.3077 68.9612V20.4997H54.923V35.4162C53.9051 34.9122 52.7102 34.9122 51.6923 35.4162V29.6535C51.6923 27.5718 50.0047 25.8843 47.923 25.8843C45.8413 25.8843 44.1538 27.5718 44.1538 29.6535V42.1351C40.6025 42.7683 38.2371 46.1605 38.8702 49.7118C39.2076 51.6042 40.3616 53.252 42.0247 54.216L45.1478 55.9983C45.8653 56.411 46.3077 57.1758 46.3077 58.0035V59.2689H45.2307C44.636 59.2689 44.1538 59.7511 44.1538 60.3458V63.5766H24.7692V65.7305H44.1538V68.9612C44.1538 69.556 44.636 70.0382 45.2307 70.0382H46.3077V72.192ZM65.6923 67.8843H46.3077V61.4228H65.6923V67.8843ZM63.6461 55.5568C63.5734 55.7067 63.5365 55.8715 63.5384 56.0382V59.2689H48.4615V58.0035C48.4603 56.4015 47.6021 54.9226 46.2118 54.1266L43.0887 52.3432C41.7241 51.5487 40.8957 50.0785 40.923 48.4997C40.9304 46.5414 42.2577 44.8345 44.1538 44.3449V48.4997H46.3077V29.6535C46.3077 28.7614 47.0309 28.0382 47.923 28.0382C48.8151 28.0382 49.5384 28.7614 49.5384 29.6535V44.192H51.6923V38.8074C51.6923 37.9153 52.4156 37.192 53.3077 37.192C54.1997 37.192 54.923 37.9153 54.923 38.8074V44.192H57.0769V40.4228C57.0769 39.5307 57.8002 38.8074 58.6923 38.8074C59.5844 38.8074 60.3077 39.5307 60.3077 40.4228V44.192H62.4615V42.0382C62.4615 41.1461 63.1848 40.4228 64.0769 40.4228C64.969 40.4228 65.6923 41.1461 65.6923 42.0382V46.9145C65.687 49.9146 64.9866 52.8728 63.6461 55.5568Z" fill="#D12129"></path><path d="M33.2458 31.5862C32.9976 30.7881 32.4338 30.126 31.6854 29.7537L29.5864 28.7037C29.132 28.4767 28.9477 27.9244 29.1746 27.47C29.3303 27.1585 29.6485 26.9615 29.9967 26.9612H30.3112C30.8187 26.9624 31.2297 27.3734 31.2309 27.8809V28.0382H33.3847V27.8809C33.3798 26.5429 32.5083 25.3623 31.2309 24.9635V23.7305H29.077V24.9635C27.4618 25.4659 26.5597 27.1825 27.0621 28.7978C27.3104 29.5959 27.8741 30.258 28.6226 30.6303L30.7215 31.6803C31.176 31.9073 31.3603 32.4596 31.1333 32.9141C30.9777 33.2256 30.6595 33.4225 30.3112 33.4228H29.9967C29.4892 33.4216 29.0783 33.0106 29.077 32.5031V32.3459H26.9232V32.5031C26.9282 33.8412 27.7997 35.0217 29.077 35.4205V36.6535H31.2309V35.4205C32.8461 34.9181 33.7482 33.2015 33.2458 31.5862Z" fill="#D12129"></path><path d="M35.5383 45.2695H21.5383V47.4234H35.5383V45.2695Z" fill="#D12129"></path><path d="M35.5383 49.5762H21.5383V51.73H35.5383V49.5762Z" fill="#D12129"></path><path d="M35.5383 53.8848H21.5383V56.0386H35.5383V53.8848Z" fill="#D12129"></path><path d="M35.5385 40.9609H26.9231V43.1148H35.5385V40.9609Z" fill="#D12129"></path><path d="M37.6922 67.8848H35.5383V70.0386H37.6922V67.8848Z" fill="#D12129"></path><path d="M63.5384 63.5762H61.3845V65.73H63.5384V63.5762Z" fill="#D12129"></path></svg>