<svg xmlns:xlink="http://www.w3.org/1999/xlink" xmlns="http://www.w3.org/2000/svg" role="img" viewBox="0 0 84 85" fill="none"><title lang="en">accessible investment funds</title><path d="M42.597 45.9813C42.4651 45.9525 42.3298 45.9473 42.1962 45.9675C40.8575 45.8101 39.8476 44.666 39.8453 43.3052C39.8453 42.653 39.3218 42.1242 38.6761 42.1242C38.0305 42.1242 37.507 42.653 37.507 43.3052C37.5104 45.5777 39.0152 47.5683 41.1846 48.1697V49.3506C41.1846 50.0028 41.7081 50.5316 42.3538 50.5316C42.9994 50.5316 43.5229 50.0028 43.5229 49.3506V48.2412C46.0268 47.7118 47.7286 45.3563 47.4655 42.7862C47.2017 40.2161 45.058 38.263 42.4999 38.2625C41.0339 38.2625 39.8453 37.0619 39.8453 35.5811C39.8453 34.1003 41.0339 32.8997 42.4999 32.8997C43.9659 32.8997 45.1545 34.1003 45.1545 35.5811C45.1545 36.2333 45.678 36.762 46.3237 36.762C46.9694 36.762 47.4929 36.2333 47.4929 35.5811C47.4894 33.195 45.8344 31.1369 43.5229 30.6445V29.5696C43.5229 28.9174 42.9994 28.3887 42.3538 28.3887C41.7081 28.3887 41.1846 28.9174 41.1846 29.5696V30.7166C38.772 31.382 37.2192 33.748 37.5515 36.2517C37.8837 38.7555 39.9989 40.6244 42.4999 40.6238C43.9465 40.6238 45.1265 41.7938 45.1528 43.2544C45.1796 44.715 44.0424 45.9283 42.597 45.9813Z" fill="#D12129"></path><path d="M25.3496 39.4605C25.3496 48.9322 33.0277 56.6104 42.4995 56.6104C51.9713 56.6104 59.6494 48.9322 59.6494 39.4605C59.6494 29.9887 51.9713 22.3105 42.4995 22.3105C33.0324 22.3209 25.3606 29.9933 25.3496 39.4605ZM42.4995 24.6759C50.665 24.6759 57.2841 31.2949 57.2841 39.4605C57.2841 47.626 50.665 54.245 42.4995 54.245C34.334 54.245 27.715 47.626 27.715 39.4605C27.7242 31.299 34.338 24.6851 42.4995 24.6759Z" fill="#D12129"></path><path d="M65.5176 59.5043L56.2726 63.8064C54.9962 61.468 52.5476 59.9799 49.853 59.905L41.3186 59.674C39.9672 59.6359 38.6413 59.2988 37.4398 58.6875L36.5713 58.2443C32.1249 55.9615 26.825 55.9672 22.3831 58.259L22.4373 56.3214C22.4552 55.6794 21.9417 55.1448 21.29 55.1272L11.9315 54.8735C11.2797 54.8559 10.7374 55.3616 10.7196 56.0035L10.1543 76.2304C10.1364 76.8723 10.6498 77.4069 11.3016 77.4245L20.6601 77.6782H20.6924C21.332 77.6782 21.8553 77.1771 21.8726 76.5477L21.8997 75.58L24.3309 74.2978C25.2852 73.7921 26.4009 73.6718 27.4433 73.9624L41.9617 77.9757C41.987 77.983 42.0124 77.9887 42.0383 77.9944C43.0877 78.2106 44.1573 78.319 45.2291 78.3185C47.4996 78.3196 49.7435 77.8377 51.8071 76.9047C51.8579 76.882 51.9068 76.8553 51.9535 76.8252L73.0038 63.4148C73.5282 63.0805 73.6977 62.4022 73.3905 61.8665C71.8277 59.1353 68.3615 58.095 65.5176 59.5043ZM12.5463 75.1327L13.0465 57.2295L20.0452 57.419L19.545 75.3229L12.5463 75.1327ZM50.7439 74.8285C48.1801 75.9682 45.3167 76.2826 42.561 75.7281L28.0818 71.7251C26.4521 71.2716 24.7078 71.4594 23.217 72.2489L21.9746 72.9045L22.3071 61.0009C26.2441 58.4219 31.2933 58.1569 35.4862 60.3085L36.3546 60.7518C37.8725 61.5236 39.5466 61.9493 41.254 61.9981L49.7891 62.2291C52.1863 62.2972 54.2223 63.9784 54.7086 66.2918L41.9957 65.9461C41.3439 65.9285 40.8017 66.4348 40.7832 67.0761C40.7654 67.7181 41.2794 68.2527 41.9306 68.2703L55.9603 68.6506H55.9931C56.6322 68.65 57.1549 68.1488 57.1722 67.52C57.1866 67.0148 57.1485 66.5091 57.0581 66.012L66.5405 61.5991C66.5497 61.5952 66.5589 61.5906 66.5681 61.5861C67.9131 60.9158 69.5393 61.14 70.6458 62.1485L50.7439 74.8285Z" fill="#D12129"></path><path d="M43.5854 18.9687V7.85007C43.5854 7.20373 43.0994 6.67969 42.5 6.67969C41.9006 6.67969 41.4146 7.20373 41.4146 7.85007V18.9687C41.4146 19.6151 41.9006 20.1391 42.5 20.1391C43.0994 20.1391 43.5854 19.6151 43.5854 18.9687Z" fill="#D12129"></path><path d="M52.7027 19.0033V13.8933C52.7027 13.2663 52.1195 12.7578 51.4002 12.7578C50.6809 12.7578 50.0977 13.2663 50.0977 13.8933V19.0033C50.0977 19.6303 50.6809 20.1388 51.4002 20.1388C52.1195 20.1388 52.7027 19.6303 52.7027 19.0033Z" fill="#D12129"></path><path d="M34.9019 19.0033V13.8933C34.9019 13.2663 34.3187 12.7578 33.5994 12.7578C32.8801 12.7578 32.2969 13.2663 32.2969 13.8933V19.0033C32.2969 19.6303 32.8801 20.1388 33.5994 20.1388C34.3187 20.1388 34.9019 19.6303 34.9019 19.0033Z" fill="#D12129"></path></svg>