<svg xmlns:xlink="http://www.w3.org/1999/xlink" xmlns="http://www.w3.org/2000/svg" role="img" width="84" height="85" viewBox="0 0 84 85" fill="none"><title lang="en">accessible index funds</title><path d="M74.3079 63.6898V55.8185L71.2928 55.048C71.2719 54.9971 71.251 54.9462 71.2291 54.8959L72.8163 52.2207L67.2502 46.6546L64.575 48.2418C64.5236 48.2199 64.4728 48.199 64.4229 48.1782L63.6524 45.1641H55.7811L55.0107 48.1792C54.9598 48.2 54.9089 48.2209 54.8585 48.2428L52.1833 46.6556L46.6172 52.2217L48.2044 54.8969C48.1825 54.9483 48.1617 54.9992 48.1408 55.049L45.1267 55.8195V63.6908L48.1418 64.4613C48.1627 64.5121 48.1835 64.563 48.2054 64.6134L46.6182 67.2886L52.1844 72.8547L54.8595 71.2675C54.9109 71.2894 54.9618 71.3103 55.0117 71.3311L55.7821 74.3452H63.6535L64.4239 71.3301C64.4748 71.3092 64.5257 71.2884 64.5761 71.2665L67.2512 72.8537L72.8174 67.2876L71.2302 64.6124C71.252 64.561 71.2729 64.5101 71.2938 64.4602L74.3079 63.6898ZM70.1987 66.9593L66.922 70.236L64.6946 68.9145L64.1934 69.1541C63.8702 69.3073 63.54 69.4457 63.2001 69.5658L62.6749 69.7521L62.0352 72.2608H57.4004L56.7607 69.7521L56.2355 69.5658C55.8956 69.4467 55.5643 69.3083 55.2422 69.1541L54.741 68.9145L52.5136 70.236L49.2369 66.9593L50.5585 64.732L50.3188 64.2307C50.1656 63.9076 50.0272 63.5773 49.9071 63.2374L49.7209 62.7122L47.2111 62.0726V57.4377L49.7199 56.7981L49.9061 56.2729C50.0252 55.933 50.1636 55.6017 50.3178 55.2796L50.5575 54.7783L49.2359 52.5509L52.5126 49.2743L54.7399 50.5958L55.2412 50.3562C55.5643 50.203 55.8946 50.0646 56.2345 49.9445L56.7597 49.7582L57.3993 47.2484H62.0342L62.6739 49.7572L63.199 49.9435C63.539 50.0625 63.8702 50.2009 64.1924 50.3551L64.6936 50.5948L66.921 49.2733L70.1976 52.5499L68.8761 54.7773L69.1158 55.2785C69.2689 55.6017 69.4074 55.9319 69.5275 56.2719L69.7137 56.797L72.2235 57.4367V62.0716L69.7147 62.7112L69.5285 63.2364C69.4094 63.5763 69.271 63.9076 69.1168 64.2297L68.8771 64.731L70.1987 66.9593Z" fill="#D12129"></path><path d="M59.7173 51.418C55.1201 51.418 51.3799 55.1582 51.3799 59.7554C51.3799 64.3526 55.1201 68.0929 59.7173 68.0929C64.3146 68.0929 68.0548 64.3526 68.0548 59.7554C68.0548 55.1582 64.3146 51.418 59.7173 51.418ZM59.7173 66.0085C56.2687 66.0085 53.4642 63.2041 53.4642 59.7554C53.4642 56.3068 56.2687 53.5023 59.7173 53.5023C63.166 53.5023 65.9704 56.3068 65.9704 59.7554C65.9704 63.2041 63.166 66.0085 59.7173 66.0085Z" fill="#D12129"></path><path d="M59.7173 55.5859C57.4182 55.5859 55.5486 57.4556 55.5486 59.7547C55.5486 62.0538 57.4182 63.9234 59.7173 63.9234C62.0164 63.9234 63.8861 62.0538 63.8861 59.7547C63.8861 57.4556 62.0164 55.5859 59.7173 55.5859ZM59.7173 61.839C58.5678 61.839 57.633 60.9042 57.633 59.7547C57.633 58.6051 58.5678 57.6703 59.7173 57.6703C60.8669 57.6703 61.8017 58.6051 61.8017 59.7547C61.8017 60.9042 60.8669 61.839 59.7173 61.839Z" fill="#D12129"></path><path d="M36.0857 27.3768C36.4348 28.4002 37.0424 29.3024 37.8311 30.0113V30.8952L32.8757 32.7531C30.8529 33.5109 29.4937 35.4716 29.4937 37.6318V43.0803H54.5061V37.6318C54.5061 35.4716 53.1469 33.5109 51.1251 32.7521L46.1686 30.8942V30.0113C46.9574 29.3035 47.565 28.4012 47.914 27.3768C49.8778 27.04 51.3795 25.3362 51.3795 23.2788V19.1101C51.3795 13.9389 47.1721 9.73047 41.9999 9.73047C36.8276 9.73047 32.6202 13.9389 32.6202 19.1101V23.2788C32.6202 25.3362 34.1219 27.04 36.0857 27.3768ZM44.0842 31.3278L41.9999 34.8014L39.9155 31.3278V31.2514C40.5689 31.484 41.2681 31.6163 41.9999 31.6163C42.7316 31.6163 43.4308 31.483 44.0842 31.2514V31.3278ZM38.426 32.8972L40.5272 36.3977L38.4397 37.4409L37.0912 33.3974L38.426 32.8972ZM52.4217 37.6318V40.996H31.578V37.6318C31.578 36.3351 32.3932 35.1596 33.6069 34.7042L35.1392 34.1302L37.2225 40.3812L41.9999 37.9926L46.7772 40.3812L48.8606 34.1302L50.3938 34.7052C51.6065 35.1596 52.4217 36.3351 52.4217 37.6318ZM46.9085 33.3974L45.56 37.442L43.4726 36.3988L45.5737 32.8972L46.9085 33.3974ZM41.9999 29.5319C39.7007 29.5319 37.8311 27.6623 37.8311 25.3632V21.1237C39.3567 20.9629 40.7964 20.4067 41.9999 19.4602C43.2034 20.4078 44.643 20.9629 46.1686 21.1237V25.3632C46.1686 27.6623 44.299 29.5319 41.9999 29.5319ZM48.253 25.0737V21.4851C48.8733 21.8469 49.2951 22.512 49.2951 23.2799C49.2951 24.0478 48.8733 24.7119 48.253 25.0737ZM41.9999 11.8148C46.0215 11.8148 49.2951 15.0874 49.2951 19.1101V19.6897C48.6794 19.331 47.9736 19.1101 47.2108 19.1101H47.0317C45.4088 19.1101 43.8832 18.4786 42.7367 17.3311L41.9999 16.5932L41.263 17.3311C40.1155 18.4786 38.5909 19.1101 36.9681 19.1101H36.7889C36.0261 19.1101 35.3203 19.331 34.7046 19.6897V19.1101C34.7046 15.0874 37.9782 11.8148 41.9999 11.8148ZM35.7468 21.484V25.0726C35.1264 24.7108 34.7046 24.0457 34.7046 23.2778C34.7046 22.5099 35.1264 21.8458 35.7468 21.484Z" fill="#D12129"></path><path d="M9.69238 74.3468H30.536V47.25H9.69238V74.3468ZM11.7767 49.3344H28.4517V72.2624H11.7767V49.3344Z" fill="#D12129"></path><path d="M13.8611 51.418H26.3673V53.5023H13.8611V51.418Z" fill="#D12129"></path><path d="M13.8611 55.5859H15.9455V57.6703H13.8611V55.5859Z" fill="#D12129"></path><path d="M18.03 55.5859H26.3675V57.6703H18.03V55.5859Z" fill="#D12129"></path><path d="M13.8611 59.7559H26.3673V61.8402H13.8611V59.7559Z" fill="#D12129"></path><path d="M13.8611 63.9238H26.3673V66.0082H13.8611V63.9238Z" fill="#D12129"></path><path d="M24.2832 68.0918H26.3676V70.1762H24.2832V68.0918Z" fill="#D12129"></path><path d="M13.8611 68.0918H22.1986V70.1762H13.8611V68.0918Z" fill="#D12129"></path><path d="M37.526 56.3233L36.0523 54.8496L31.1467 59.7552L36.0523 64.6608L37.526 63.1871L35.1363 60.7974H43.0423V58.713H35.1363L37.526 56.3233Z" fill="#D12129"></path><path d="M21.1564 26.406C21.1564 25.832 21.6235 25.3638 22.1986 25.3638H26.978L24.5883 27.7535L26.062 29.2272L30.9676 24.3216L26.062 19.416L24.5883 20.8897L26.978 23.2794H22.1986C20.475 23.2794 19.072 24.6824 19.072 26.406V45.1653H21.1564V26.406Z" fill="#D12129"></path><path d="M59.7172 26.4058V39.5227L57.3275 37.133L55.8538 38.6067L60.7594 43.5123L65.665 38.6067L64.1913 37.133L61.8016 39.5227V26.4058C61.8016 24.6823 60.3986 23.2793 58.675 23.2793H53.4641V25.3637H58.675C59.2501 25.3637 59.7172 25.8318 59.7172 26.4058Z" fill="#D12129"></path></svg>