<svg xmlns:xlink="http://www.w3.org/1999/xlink" xmlns="http://www.w3.org/2000/svg" width="20" height="20" viewBox="0 0 20 20" fill="none"><path d="M14.4806 0H5.51916C2.4759 0 0 2.47601 0 5.51928V14.4807C0 17.5241 2.4759 20 5.51916 20H14.4806C17.5241 20 20 17.524 20 14.4807V5.51928C20.0001 2.47601 17.5241 0 14.4806 0ZM18.2256 14.4807C18.2256 16.5456 16.5456 18.2255 14.4807 18.2255H5.51916C3.45435 18.2256 1.7745 16.5456 1.7745 14.4807V5.51928C1.7745 3.45447 3.45435 1.7745 5.51916 1.7745H14.4806C16.5455 1.7745 18.2255 3.45447 18.2255 5.51928V14.4807H18.2256Z" fill="#FFFFFF"></path><path d="M10.0002 4.84766C7.15849 4.84766 4.84668 7.15947 4.84668 10.0012C4.84668 12.8427 7.15849 15.1544 10.0002 15.1544C12.8419 15.1544 15.1537 12.8427 15.1537 10.0012C15.1537 7.15947 12.8419 4.84766 10.0002 4.84766ZM10.0002 13.3798C8.13707 13.3798 6.62118 11.8641 6.62118 10.001C6.62118 8.13781 8.13695 6.62204 10.0002 6.62204C11.8634 6.62204 13.3792 8.13781 13.3792 10.001C13.3792 11.8641 11.8633 13.3798 10.0002 13.3798Z" fill="#FFFFFF"></path><path d="M15.3697 3.3418C15.0278 3.3418 14.6919 3.48021 14.4505 3.72272C14.2078 3.96405 14.0684 4.30003 14.0684 4.64309C14.0684 4.9851 14.208 5.32095 14.4505 5.56347C14.6918 5.8048 15.0278 5.94439 15.3697 5.94439C15.7127 5.94439 16.0475 5.8048 16.29 5.56347C16.5325 5.32095 16.6709 4.98498 16.6709 4.64309C16.6709 4.30003 16.5325 3.96405 16.29 3.72272C16.0487 3.48021 15.7127 3.3418 15.3697 3.3418Z" fill="#FFFFFF"></path></svg>