<svg xmlns:xlink="http://www.w3.org/1999/xlink" xmlns="http://www.w3.org/2000/svg" width="20" height="20" viewBox="0 0 20 20" fill="none"><path d="M20 11.717V19.1112H15.7134V12.2123C15.7134 10.4792 15.0933 9.29645 13.5417 9.29645C12.3572 9.29645 11.6524 10.0935 11.3423 10.8646C11.2292 11.1402 11.2001 11.5239 11.2001 11.9097V19.1112H6.91198C6.91198 19.1112 6.96973 7.42668 6.91198 6.21608H11.1997V8.0439C11.191 8.05757 11.1797 8.07232 11.1715 8.08557H11.1997V8.0439C11.7693 7.16651 12.7867 5.91314 15.0638 5.91314C17.885 5.91309 20 7.75617 20 11.717ZM2.42646 0C0.959506 0 0 0.962203 0 2.22753C0 3.46529 0.931746 4.45669 2.36954 4.45669H2.39818C3.89355 4.45669 4.82352 3.46548 4.82352 2.22753C4.79535 0.962203 3.89355 0 2.42646 0ZM0.254675 19.1112H4.54114V6.21608H0.254675V19.1112Z" fill="#FFFFFF"></path></svg>