<svg xmlns:xlink="http://www.w3.org/1999/xlink" xmlns="http://www.w3.org/2000/svg" width="20" height="20" viewBox="0 0 20 20" fill="none"><path d="M4.31933 10.652H6.4893V19.6774C6.4893 19.8556 6.6322 20 6.80859 20H10.4879C10.6643 20 10.8072 19.8556 10.8072 19.6774V10.6945H13.3018C13.464 10.6945 13.6004 10.5716 13.619 10.4088L13.9978 7.08609C14.0082 6.99469 13.9796 6.90313 13.919 6.83453C13.8584 6.7659 13.7717 6.7266 13.6807 6.7266H10.8073V4.64375C10.8073 4.0159 11.1419 3.6975 11.802 3.6975C11.8961 3.6975 13.6807 3.6975 13.6807 3.6975C13.8571 3.6975 14 3.55305 14 3.37492V0.324961C14 0.146758 13.8571 0.00238281 13.6807 0.00238281H11.0915C11.0733 0.00148437 11.0327 0 10.973 0C10.5237 0 8.96217 0.0891015 7.72865 1.23555C6.36194 2.50602 6.55194 4.02715 6.59733 4.2909V6.72652H4.31929C4.1429 6.72652 4 6.8709 4 7.0491V10.3294C4.00004 10.5075 4.14294 10.652 4.31933 10.652Z" fill="#FFFFFF"></path></svg>