<svg xmlns:xlink="http://www.w3.org/1999/xlink" xmlns="http://www.w3.org/2000/svg" width="20" height="20" viewBox="0 0 20 20" fill="none"><path d="M19.6921 0.521359C19.4482 0.185231 19.0832 0 18.6642 0C18.4362 0 18.195 0.0542474 17.9469 0.161026L1.05928 7.43172C0.163078 7.81746 0.0423778 8.39633 0.0501404 8.70722C0.057903 9.01795 0.207523 9.58823 1.12168 9.91612C1.12716 9.91818 1.13264 9.91989 1.13812 9.92178L3.50647 10.6861L15.0408 4.03989C15.3281 3.87405 15.6803 4.00281 15.8272 4.32709C15.9426 4.58185 15.8963 4.88124 15.7319 5.07831L15.7324 5.07883L9.31928 12.7643L9.13632 13.6005L11.4264 15.6804L14.6 18.5626C14.6027 18.565 14.6054 18.5675 14.6083 18.57C14.9575 18.8755 15.3389 19.0369 15.7114 19.0371C16.4392 19.0371 17.0187 18.4295 17.1875 17.4895L19.9545 2.07977C20.0654 1.46142 19.9723 0.907786 19.6921 0.521359Z" fill="#FFFFFF"></path><path d="M8.22129 12.2804C8.24458 12.1738 8.29146 12.0722 8.36284 11.9865L12.5709 6.94336L4.76221 11.4428L6.53528 17.162C6.63635 17.4878 6.78673 17.7652 6.97273 17.9824L8.22098 12.2802L8.22129 12.2804Z" fill="#FFFFFF"></path><path d="M8.06104 18.513C8.4825 18.509 8.89666 18.3085 9.25952 17.9317L10.5568 16.5844L8.8271 15.0137L8.06104 18.513Z" fill="#FFFFFF"></path></svg>