<svg xmlns:xlink="http://www.w3.org/1999/xlink" xmlns="http://www.w3.org/2000/svg" width="20" height="20" viewBox="0 0 20 20" fill="none"><path d="M20 3.92213C19.2639 4.2483 18.4741 4.46951 17.6442 4.56827C18.4915 4.06085 19.1402 3.25602 19.4476 2.29994C18.6527 2.76984 17.7754 3.11105 16.8406 3.29602C16.092 2.49742 15.0271 2 13.8461 2C11.5803 2 9.74312 3.83716 9.74312 6.10174C9.74312 6.42292 9.77936 6.73661 9.84936 7.03658C6.44001 6.86534 3.41684 5.2319 1.39347 2.74984C1.03977 3.35474 0.838563 4.05958 0.838563 4.81197C0.838563 6.23547 1.56343 7.49148 2.66324 8.22632C1.99085 8.20384 1.35847 8.01887 0.804838 7.71142V7.76266C0.804838 9.74979 2.21958 11.4082 4.09546 11.7857C3.75177 11.8782 3.38935 11.9294 3.01442 11.9294C2.74948 11.9294 2.49327 11.9032 2.24206 11.8532C2.76445 13.4841 4.27919 14.6701 6.07387 14.7026C4.67037 15.8024 2.90069 16.4561 0.978564 16.4561C0.647387 16.4561 0.321177 16.4361 0 16.3998C1.81592 17.5659 3.97177 18.2457 6.28883 18.2457C13.8362 18.2457 17.9617 11.9944 17.9617 6.57292L17.9479 6.04177C18.754 5.46684 19.4513 4.74448 20 3.92213Z" fill="#FFFFFF"></path></svg>