<svg xmlns:xlink="http://www.w3.org/1999/xlink" xmlns="http://www.w3.org/2000/svg" width="18" height="20" viewBox="0 0 18 20" fill="none"><path d="M15.8899 0H2.1088C1.8312 0.000645099 1.55646 0.0544277 1.30025 0.158277C1.04403 0.262126 0.811378 0.414009 0.615559 0.605252C0.419739 0.796496 0.264592 1.02335 0.158975 1.27288C0.0533586 1.5224 -0.000659224 1.7897 6.07138e-06 2.05951V15.5748C-0.000659224 15.8446 0.0533586 16.1119 0.158975 16.3615C0.264592 16.611 0.419739 16.8378 0.615559 17.0291C0.811378 17.2203 1.04403 17.3722 1.30025 17.4761C1.55646 17.5799 1.8312 17.6337 2.1088 17.6343H13.7723L13.2271 15.79L14.544 16.9802L15.7887 18.1003L18 20V2.05951C18.0007 1.78959 17.9466 1.5222 17.8409 1.27259C17.7352 1.02299 17.5799 0.796078 17.384 0.604818C17.188 0.413559 16.9552 0.261702 16.6989 0.157925C16.4425 0.0541475 16.1676 0.000483817 15.8899 0V0ZM11.9203 13.0555C11.9203 13.0555 11.5497 12.6251 11.241 12.2452C11.9868 12.0745 12.6464 11.6529 13.1031 11.055C12.733 11.2945 12.3362 11.4925 11.9203 11.6451C11.4418 11.8438 10.9414 11.9882 10.4288 12.0755C9.54788 12.2331 8.64441 12.2297 7.76471 12.0657C7.24622 11.9676 6.73808 11.8236 6.24668 11.6353C5.9885 11.5391 5.73743 11.4257 5.49526 11.296C5.4649 11.2763 5.43327 11.2664 5.40291 11.2455C5.38726 11.2383 5.37311 11.2283 5.36117 11.216C5.17647 11.1164 5.07274 11.0464 5.07274 11.0464C5.51306 11.6313 6.14978 12.0484 6.87287 12.2255C6.5642 12.6054 6.18343 13.0555 6.18343 13.0555C5.57241 13.0714 4.96671 12.9412 4.41965 12.6762C3.87259 12.4112 3.40092 12.0195 3.04618 11.5357C3.07967 9.50907 3.58618 7.51627 4.52752 5.70761C5.35813 5.07406 6.37103 4.7075 7.42568 4.6588L7.52815 4.78175C6.53891 5.01874 5.6155 5.46456 4.82353 6.08754C4.82353 6.08754 5.04997 5.96459 5.43074 5.79737C6.16957 5.46814 6.95726 5.25443 7.76471 5.16415C7.8222 5.15268 7.88061 5.1461 7.93928 5.14447C8.62838 5.05732 9.32573 5.05071 10.0164 5.1248C11.1028 5.24523 12.1543 5.57103 13.112 6.08386C12.3605 5.49101 11.4883 5.05979 10.5528 4.81864L10.697 4.6588C11.7492 4.70936 12.7592 5.07627 13.5876 5.70884C14.5289 7.5175 15.0355 9.5103 15.0689 11.5369C14.7111 12.0202 14.2372 12.4112 13.6884 12.6759C13.1397 12.9405 12.5327 13.0708 11.9203 13.0555ZM7.13726 8.38313C6.85795 8.41453 6.60027 8.54462 6.41323 8.74866C6.22618 8.9527 6.12283 9.21645 6.12283 9.48973C6.12283 9.76302 6.22618 10.0268 6.41323 10.2308C6.60027 10.4348 6.85795 10.5649 7.13726 10.5963C7.42721 10.5845 7.70049 10.4613 7.89711 10.2539C8.09372 10.0464 8.19761 9.77158 8.18596 9.48973C8.19257 9.34998 8.17062 9.21034 8.12138 9.07888C8.07213 8.94742 7.99656 8.82676 7.89905 8.72386C7.80153 8.62096 7.684 8.53786 7.55324 8.47938C7.42248 8.42089 7.2811 8.38818 7.13726 8.38313ZM10.8918 8.38313C10.6617 8.36405 10.431 8.41301 10.23 8.52358C10.0289 8.63415 9.86698 8.80118 9.76532 9.00276C9.66365 9.20435 9.62703 9.4311 9.66024 9.65327C9.69345 9.87544 9.79496 10.0827 9.95145 10.2478C10.1079 10.4129 10.3121 10.5282 10.5372 10.5786C10.7623 10.629 10.9978 10.6121 11.2128 10.5302C11.4279 10.4482 11.6124 10.305 11.7423 10.1194C11.8721 9.93371 11.9412 9.71424 11.9405 9.48973C11.9522 9.20789 11.8483 8.93306 11.6517 8.72559C11.4551 8.51812 11.1818 8.39495 10.8918 8.38313Z" fill="#FFFFFF"></path></svg>